<?xml version="1.0" encoding="UTF-8" standalone="no"?>
<svg
   xmlns:dc="http://purl.org/dc/elements/1.1/"
   xmlns:cc="http://creativecommons.org/ns#"
   xmlns:rdf="http://www.w3.org/1999/02/22-rdf-syntax-ns#"
   xmlns:svg="http://www.w3.org/2000/svg"
   xmlns="http://www.w3.org/2000/svg"
   xmlns:sodipodi="http://sodipodi.sourceforge.net/DTD/sodipodi-0.dtd"
   xmlns:inkscape="http://www.inkscape.org/namespaces/inkscape"
   width="16"
   height="16"
   version="1.1"
   id="svg3719"
   sodipodi:docname="tree-table.svg"
   inkscape:version="0.92.2 (5c3e80d, 2017-08-06)">
  <metadata
     id="metadata3725">
    <rdf:RDF>
      <cc:Work
         rdf:about="">
        <dc:format>image/svg+xml</dc:format>
        <dc:type
           rdf:resource="http://purl.org/dc/dcmitype/StillImage" />
      </cc:Work>
    </rdf:RDF>
  </metadata>
  <defs
     id="defs3723" />
  <sodipodi:namedview
     pagecolor="#ffffff"
     bordercolor="#666666"
     borderopacity="1"
     objecttolerance="10"
     gridtolerance="10"
     guidetolerance="10"
     inkscape:pageopacity="0"
     inkscape:pageshadow="2"
     inkscape:window-width="1391"
     inkscape:window-height="660"
     id="namedview3721"
     showgrid="false"
     inkscape:zoom="18.73833"
     inkscape:cx="-5.0858149"
     inkscape:cy="5.9494596"
     inkscape:window-x="83"
     inkscape:window-y="107"
     inkscape:window-maximized="0"
     inkscape:current-layer="svg3719" />
  <style
     type="text/css"
     id="style3713">.icon-canvas-transparent{opacity:0;fill:#F6F6F6;} .icon-vs-out{fill:#F6F6F6;} .icon-vs-bg{fill:#424242;} .icon-vs-fg{fill:#F0EFF1;}</style>
  <path
     class="icon-canvas-transparent"
     d="M16 16h-16v-16h16v16z"
     id="canvas" />
  <path
     class="icon-vs-out"
     d="M16 15h-15v-14h15v14z"
     id="outline"
     style="fill:#2d2d30;fill-opacity:1" />
  <path
     class="icon-vs-bg"
     d="M2 2v12h13v-12h-13zm4 11h-3v-2h3v2zm0-3h-3v-2h3v2zm0-3h-3v-2h3v2zm4 6h-3v-2h3v2zm0-3h-3v-2h3v2zm0-3h-3v-2h3v2zm4 6h-3v-2h3v2zm0-3h-3v-2h3v2zm0-3h-3v-2h3v2z"
     id="iconBg"
     style="fill:#c5c5c5;fill-opacity:1" />
  <path
     class="icon-vs-fg"
     d="M14 7h-3v-2h3v2zm0 1h-3v2h3v-2zm-4-3h-3v2h3v-2zm0 3h-3v2h3v-2zm-4-3h-3v2h3v-2zm0 3h-3v2h3v-2zm8 3h-3v2h3v-2zm-4 0h-3v2h3v-2zm-4 0h-3v2h3v-2z"
     id="iconFg"
     style="fill:#2d2d30;fill-opacity:1" />
</svg>
