<?xml version="1.0" encoding="UTF-8" standalone="no"?>
<!-- Generator: Adobe Illustrator 21.0.0, SVG Export Plug-In . SVG Version: 6.00 Build 0)  -->

<svg
   xmlns:dc="http://purl.org/dc/elements/1.1/"
   xmlns:cc="http://creativecommons.org/ns#"
   xmlns:rdf="http://www.w3.org/1999/02/22-rdf-syntax-ns#"
   xmlns:svg="http://www.w3.org/2000/svg"
   xmlns="http://www.w3.org/2000/svg"
   xmlns:sodipodi="http://sodipodi.sourceforge.net/DTD/sodipodi-0.dtd"
   xmlns:inkscape="http://www.inkscape.org/namespaces/inkscape"
   version="1.1"
   x="0px"
   y="0px"
   viewBox="0 0 16 16"
   style="enable-background:new 0 0 16 16;"
   xml:space="preserve"
   id="svg18506"
   sodipodi:docname="tree-query.svg"
   inkscape:version="0.92.2 (5c3e80d, 2017-08-06)"><metadata
     id="metadata18512"><rdf:RDF><cc:Work
         rdf:about=""><dc:format>image/svg+xml</dc:format><dc:type
           rdf:resource="http://purl.org/dc/dcmitype/StillImage" /></cc:Work></rdf:RDF></metadata><defs
     id="defs18510" /><sodipodi:namedview
     pagecolor="#ffffff"
     bordercolor="#666666"
     borderopacity="1"
     objecttolerance="10"
     gridtolerance="10"
     guidetolerance="10"
     inkscape:pageopacity="0"
     inkscape:pageshadow="2"
     inkscape:window-width="780"
     inkscape:window-height="480"
     id="namedview18508"
     showgrid="false"
     inkscape:zoom="14.75"
     inkscape:cx="8.2226295"
     inkscape:cy="8.7313082"
     inkscape:window-x="0"
     inkscape:window-y="0"
     inkscape:window-maximized="0"
     inkscape:current-layer="svg18506" /><style
     type="text/css"
     id="style18489">
	.icon_x002D_canvas_x002D_transparent{opacity:0;fill:#F6F6F6;}
	.icon_x002D_vs_x002D_out{fill:#F6F6F6;}
	.icon_x002D_vs_x002D_bg{fill:#424242;}
	.icon_x002D_vs_x002D_fg{fill:#F0EFF1;}
	.icon_x002D_vs_x002D_blue{fill:#1BA1E2;}
</style><g
     id="canvas"><path
       class="icon_x002D_canvas_x002D_transparent"
       d="M16,16H0V0h16V16z"
       id="path18491" /></g><g
     id="outline"><path
       class="icon_x002D_vs_x002D_out"
       d="M13,1h-1v2.014c-1.499-1.43-6.457-1.305-8,0.004V1H3L1,3.586V8h0.676   C1.253,8.413,1,8.926,1,9.5v3C1,13.926,2.505,15,4.5,15S8,13.926,8,12.5V14h7V3.586L13,1z"
       id="path18494"
       style="fill:#2d2d30;fill-opacity:1" /></g><g
     id="iconBg"><path
       class="icon_x002D_vs_x002D_bg"
       d="M9,13h5V8H9V13z M10,9h3v1h-3V9z M10,11h3v1h-3V11z M14,4v2v1h-1h-2l-1-1h2.472   c-1.01-1.219-2.529-2-4.232-2H7.761C6.058,4,4.538,4.781,3.528,6H6L5,7H3H2V6V4l1-1v2.085C4.187,3.804,5.88,3,7.761,3H8v0.01   c2,0.039,3.843,0.826,5,2.075V3L14,4z"
       id="path18497"
       style="fill:#c5c5c5;fill-opacity:1" /></g><g
     id="iconFg"><path
       class="icon_x002D_vs_x002D_fg"
       d="M13,9v1h-3V9H13z M10,12h3v-1h-3V12z M4.5,8.575c-1.084,0-1.925,0.497-1.925,0.925   s0.841,0.925,1.925,0.925S6.425,9.928,6.425,9.5S5.584,8.575,4.5,8.575z"
       id="path18500"
       style="fill:#2d2d30;fill-opacity:1" /></g><g
     id="colorImportance"><path
       class="icon_x002D_vs_x002D_blue"
       d="M4.5,8C3.119,8,2,8.672,2,9.5v3C2,13.328,3.119,14,4.5,14S7,13.328,7,12.5v-3   C7,8.672,5.881,8,4.5,8z M4.5,10.425c-1.084,0-1.925-0.497-1.925-0.925S3.416,8.575,4.5,8.575S6.425,9.072,6.425,9.5   S5.584,10.425,4.5,10.425z"
       id="path18503"
       style="fill:#75beff;fill-opacity:1" /></g></svg>