<?xml version="1.0" encoding="UTF-8" standalone="no"?>
<svg
   xmlns:dc="http://purl.org/dc/elements/1.1/"
   xmlns:cc="http://creativecommons.org/ns#"
   xmlns:rdf="http://www.w3.org/1999/02/22-rdf-syntax-ns#"
   xmlns:svg="http://www.w3.org/2000/svg"
   xmlns="http://www.w3.org/2000/svg"
   xmlns:sodipodi="http://sodipodi.sourceforge.net/DTD/sodipodi-0.dtd"
   xmlns:inkscape="http://www.inkscape.org/namespaces/inkscape"
   viewBox="0 0 16 16"
   version="1.1"
   id="svg973"
   sodipodi:docname="tree-group.svg"
   inkscape:version="0.92.2 (5c3e80d, 2017-08-06)">
  <metadata
     id="metadata979">
    <rdf:RDF>
      <cc:Work
         rdf:about="">
        <dc:format>image/svg+xml</dc:format>
        <dc:type
           rdf:resource="http://purl.org/dc/dcmitype/StillImage" />
      </cc:Work>
    </rdf:RDF>
  </metadata>
  <defs
     id="defs977" />
  <sodipodi:namedview
     pagecolor="#ffffff"
     bordercolor="#666666"
     borderopacity="1"
     objecttolerance="10"
     gridtolerance="10"
     guidetolerance="10"
     inkscape:pageopacity="0"
     inkscape:pageshadow="2"
     inkscape:window-width="1043"
     inkscape:window-height="600"
     id="namedview975"
     showgrid="false"
     inkscape:zoom="14.75"
     inkscape:cx="8"
     inkscape:cy="8"
     inkscape:window-x="0"
     inkscape:window-y="0"
     inkscape:window-maximized="0"
     inkscape:current-layer="svg973" />
  <style
     id="style957">.st0{opacity:0}.st0,.st1{fill:#f6f6f6}.st2{fill:#424242}.st3{fill:#00539c}.st4{fill:#f0eff1}</style>
  <g
     id="outline">
    <path
       class="st0"
       d="M0 0h16v16H0z"
       id="path959" />
    <path
       class="st1"
       d="M16 5V0h-5v1H5V0H0v5h1v6H0v5h5v-1h6v1h5v-5h-1V5z"
       id="path961"
       style="fill:#2d2d30;fill-opacity:1" />
  </g>
  <path
     class="st2"
     d="M10 6V2H5v1h4v3H6v3H3V5H2v5h4v4h5v-1H7v-3h3V7h3v4h1V6h-4zM9 9H7V7h2v2z"
     id="icon_x5F_bg"
     style="fill:#c5c5c5;fill-opacity:1" />
  <g
     id="color_x5F_decoration">
    <path
       class="st3"
       d="M1 1h3v3H1zM12 12h3v3h-3zM12 1h3v3h-3zM1 12h3v3H1z"
       id="path965"
       style="fill:#75beff;fill-opacity:1" />
  </g>
  <g
     id="icon_x5F_fg">
    <path
       class="st4"
       d="M7 7h2v2H7z"
       id="path968"
       style="fill:#2d2d30;fill-opacity:1" />
    <path
       class="st4"
       d="M6 9V6h3V3H5v2H3v4zM10 7v3H7v3h4v-2h2V7z"
       id="path970"
       style="fill:#2d2d30;fill-opacity:1" />
  </g>
</svg>
