<?xml version="1.0" encoding="UTF-8" standalone="no"?>
<svg
   xmlns:dc="http://purl.org/dc/elements/1.1/"
   xmlns:cc="http://creativecommons.org/ns#"
   xmlns:rdf="http://www.w3.org/1999/02/22-rdf-syntax-ns#"
   xmlns:svg="http://www.w3.org/2000/svg"
   xmlns="http://www.w3.org/2000/svg"
   xmlns:sodipodi="http://sodipodi.sourceforge.net/DTD/sodipodi-0.dtd"
   xmlns:inkscape="http://www.inkscape.org/namespaces/inkscape"
   viewBox="0 0 16 16"
   version="1.1"
   id="svg251"
   sodipodi:docname="tree-profile.svg"
   inkscape:version="0.92.2 (5c3e80d, 2017-08-06)">
  <metadata
     id="metadata255">
    <rdf:RDF>
      <cc:Work
         rdf:about="">
        <dc:format>image/svg+xml</dc:format>
        <dc:type
           rdf:resource="http://purl.org/dc/dcmitype/StillImage" />
      </cc:Work>
    </rdf:RDF>
  </metadata>
  <sodipodi:namedview
     pagecolor="#ffffff"
     bordercolor="#666666"
     borderopacity="1"
     objecttolerance="10"
     gridtolerance="10"
     guidetolerance="10"
     inkscape:pageopacity="0"
     inkscape:pageshadow="2"
     inkscape:window-width="780"
     inkscape:window-height="480"
     id="namedview253"
     showgrid="false"
     inkscape:zoom="13.25"
     inkscape:cx="7.7934492"
     inkscape:cy="6.9496609"
     inkscape:window-x="0"
     inkscape:window-y="0"
     inkscape:window-maximized="1"
     inkscape:current-layer="svg251" />
  <defs
     id="defs235">
    <style
       id="style233">.icon-canvas-transparent,.icon-vs-out{fill:#f6f6f6}.icon-canvas-transparent{opacity:0}.icon-vs-bg{fill:#424242}.icon-vs-fg{fill:#f0eff1}.icon-vs-action-purple{fill:#652d90}</style>
  </defs>
  <title
     id="title237">UserControl_16x</title>
  <path
     class="icon-canvas-transparent"
     d="M16 16H0V0h16z"
     id="path239" />
  <path
     class="icon-vs-out"
     d="M16 12H9v4H0V9h2a3.438 3.438 0 0 1-1-2.5 3.489 3.489 0 0 1 3-3.449V0h12z"
     id="path241"
     style="fill:#2d2d30;fill-opacity:1" />
  <path
     class="icon-vs-bg"
     d="M5 1v2.05a3.458 3.458 0 0 1 1 .3V2h8v8H9v1h6V1z"
     id="path243"
     style="fill:#c5c5c5;fill-opacity:1" />
  <path
     class="icon-vs-fg"
     d="M14 2v8H9V9H6.926A3.456 3.456 0 0 0 8 6.5a3.491 3.491 0 0 0-2-3.15V2z"
     id="path245"
     style="fill:#2d2d30;fill-opacity:1" />
  <circle
     class="icon-vs-action-purple"
     cx="4.5"
     cy="6.5"
     r="2.5"
     id="circle247"
     style="fill:#813ab7;fill-opacity:1" />
  <path
     class="icon-vs-action-purple"
     d="M4.5 12L3 10H1v5h7v-5H6l-1.5 2z"
     id="path249"
     style="fill:#813ab7;fill-opacity:1" />
</svg>
