<?xml version="1.0" encoding="UTF-8" standalone="no"?>
<svg
   xmlns:dc="http://purl.org/dc/elements/1.1/"
   xmlns:cc="http://creativecommons.org/ns#"
   xmlns:rdf="http://www.w3.org/1999/02/22-rdf-syntax-ns#"
   xmlns:svg="http://www.w3.org/2000/svg"
   xmlns="http://www.w3.org/2000/svg"
   xmlns:sodipodi="http://sodipodi.sourceforge.net/DTD/sodipodi-0.dtd"
   xmlns:inkscape="http://www.inkscape.org/namespaces/inkscape"
   viewBox="0 0 16 16"
   version="1.1"
   id="svg17152"
   sodipodi:docname="tree-pageextension.svg"
   inkscape:version="0.92.2 (5c3e80d, 2017-08-06)">
  <metadata
     id="metadata17158">
    <rdf:RDF>
      <cc:Work
         rdf:about="">
        <dc:format>image/svg+xml</dc:format>
        <dc:type
           rdf:resource="http://purl.org/dc/dcmitype/StillImage" />
      </cc:Work>
    </rdf:RDF>
  </metadata>
  <defs
     id="defs17156" />
  <sodipodi:namedview
     pagecolor="#000000"
     bordercolor="#999999"
     borderopacity="1"
     objecttolerance="10"
     gridtolerance="10"
     guidetolerance="10"
     inkscape:pageopacity="0"
     inkscape:pageshadow="2"
     inkscape:window-width="780"
     inkscape:window-height="480"
     id="namedview17154"
     showgrid="false"
     inkscape:zoom="14.75"
     inkscape:cx="8"
     inkscape:cy="8"
     inkscape:window-x="0"
     inkscape:window-y="0"
     inkscape:window-maximized="0"
     inkscape:current-layer="svg17152" />
  <style
     id="style17145">.icon-canvas-transparent{opacity:0;fill:#090909}.icon-vs-out{fill:#090909}.icon-vs-bg{fill:#bdbdbd}.icon-vs-fg{fill:#0f0e10}.icon-vs-blue{fill:#1da3e4}</style>
  <path
     class="icon-canvas-transparent"
     d="M16 16H0V0h16v16z"
     id="canvas" />
  <path
     class="icon-vs-out"
     d="M15 0v16H1V0h14z"
     id="outline" />
  <path
     class="icon-vs-bg"
     d="M2 1v14h12V1H2zm11 13H3V2h10v12zm-1-1H4v-1h8v1zm0-2H4v-1h8v1zm0-2H4V8h8v1z"
     id="iconBg" />
  <path
     class="icon-vs-fg"
     d="M11 5H5V4h6v1zm2-3v12H3V2h10zm-1 10H4v1h8v-1zm0-2H4v1h8v-1zm0-2H4v1h8V8zm0-5H4v3h8V3z"
     id="iconFg" />
  <path
     class="icon-vs-blue"
     d="M12 3H4v3h8V3zm-1 2H5V4h6v1z"
     id="colorImportance"
     style="fill:#63b6ff;fill-opacity:1" />
</svg>
