<?xml version="1.0" encoding="UTF-8" standalone="no"?>
<svg
   xmlns:dc="http://purl.org/dc/elements/1.1/"
   xmlns:cc="http://creativecommons.org/ns#"
   xmlns:rdf="http://www.w3.org/1999/02/22-rdf-syntax-ns#"
   xmlns:svg="http://www.w3.org/2000/svg"
   xmlns="http://www.w3.org/2000/svg"
   xmlns:sodipodi="http://sodipodi.sourceforge.net/DTD/sodipodi-0.dtd"
   xmlns:inkscape="http://www.inkscape.org/namespaces/inkscape"
   viewBox="0 0 16 16"
   version="1.1"
   id="svg1578"
   sodipodi:docname="tree-page.svg"
   inkscape:version="0.92.2 (5c3e80d, 2017-08-06)">
  <metadata
     id="metadata1584">
    <rdf:RDF>
      <cc:Work
         rdf:about="">
        <dc:format>image/svg+xml</dc:format>
        <dc:type
           rdf:resource="http://purl.org/dc/dcmitype/StillImage" />
      </cc:Work>
    </rdf:RDF>
  </metadata>
  <defs
     id="defs1582" />
  <sodipodi:namedview
     pagecolor="#ffffff"
     bordercolor="#666666"
     borderopacity="1"
     objecttolerance="10"
     gridtolerance="10"
     guidetolerance="10"
     inkscape:pageopacity="0"
     inkscape:pageshadow="2"
     inkscape:window-width="780"
     inkscape:window-height="480"
     id="namedview1580"
     showgrid="false"
     inkscape:zoom="41.7193"
     inkscape:cx="10.746976"
     inkscape:cy="5.0102735"
     inkscape:window-x="0"
     inkscape:window-y="0"
     inkscape:window-maximized="0"
     inkscape:current-layer="colorImportance" />
  <style
     id="style1562">.icon-vs-out{fill:#f6f6f6}.icon-vs-bg{fill:#424242}.icon-vs-fg{fill:#f0eff1}.icon-vs-action-orange{fill:#c27d1a}.st0{fill:#f6f6f6}.st1{fill:#f0eff1}.st2{fill:#c27d1a}</style>
  <path
     class="st0"
     d="M0 0h16v16H0z"
     id="outline" />
  <g
     id="iconBg">
    <path
       class="icon-vs-out"
       d="M0 0h16v16H0z"
       id="path1565"
       style="fill:#2d2d30;fill-opacity:1" />
    <path
       class="icon-vs-bg"
       d="M1 1v14h14V1H1zm13 13H2V4h12v10zM7 9H3V8h4v1zm0-3H3V5h4v1z"
       id="path1567"
       style="fill:#c5c5c5;fill-opacity:1" />
    <path
       class="st1"
       d="M9 9h3v1H9z"
       id="path1569"
       style="fill:#2d2d30;fill-opacity:1" />
  </g>
  <g
     id="colorImportance">
    <path
       class="st2"
       d="M11 12h2v1h-2z"
       id="path1572"
       style="fill:#e8ab53;fill-opacity:1" />
    <path
       class="icon-vs-action-orange"
       d="M8 12h2v1H8v-1zm5-7H8v2h5V5zm0 6H8V8h5v3zm-1-2H9v1h3V9z"
       id="path1574"
       style="fill:#e8ab53;fill-opacity:1" />
  </g>
  <path
     class="icon-vs-fg"
     d="M14 14H2V4h12v10zm-1-9H8v2h5V5zm0 3H8v3h5V8zM7 5H3v1h4V5zm0 3H3v1h4V8zm6 4h-2v1h2v-1zm-3 0H8v1h2v-1z"
     id="iconFg"
     style="fill:#2d2d30;fill-opacity:1" />
</svg>
