<?xml version="1.0" encoding="UTF-8" standalone="no"?>
<svg
   xmlns:dc="http://purl.org/dc/elements/1.1/"
   xmlns:cc="http://creativecommons.org/ns#"
   xmlns:rdf="http://www.w3.org/1999/02/22-rdf-syntax-ns#"
   xmlns:svg="http://www.w3.org/2000/svg"
   xmlns="http://www.w3.org/2000/svg"
   xmlns:sodipodi="http://sodipodi.sourceforge.net/DTD/sodipodi-0.dtd"
   xmlns:inkscape="http://www.inkscape.org/namespaces/inkscape"
   width="16"
   height="16"
   version="1.1"
   id="svg8085"
   sodipodi:docname="tree-report.svg"
   inkscape:version="0.92.2 (5c3e80d, 2017-08-06)">
  <metadata
     id="metadata8091">
    <rdf:RDF>
      <cc:Work
         rdf:about="">
        <dc:format>image/svg+xml</dc:format>
        <dc:type
           rdf:resource="http://purl.org/dc/dcmitype/StillImage" />
      </cc:Work>
    </rdf:RDF>
  </metadata>
  <defs
     id="defs8089" />
  <sodipodi:namedview
     pagecolor="#ffffff"
     bordercolor="#666666"
     borderopacity="1"
     objecttolerance="10"
     gridtolerance="10"
     guidetolerance="10"
     inkscape:pageopacity="0"
     inkscape:pageshadow="2"
     inkscape:window-width="1216"
     inkscape:window-height="616"
     id="namedview8087"
     showgrid="false"
     inkscape:zoom="14.75"
     inkscape:cx="8"
     inkscape:cy="8"
     inkscape:window-x="0"
     inkscape:window-y="0"
     inkscape:window-maximized="0"
     inkscape:current-layer="svg8085" />
  <style
     type="text/css"
     id="style8079">.icon-canvas-transparent{opacity:0;fill:#F6F6F6;} .icon-vs-out{fill:#F6F6F6;} .icon-vs-bg{fill:#424242;} .icon-vs-fg{fill:#F0EFF1;}</style>
  <path
     class="icon-canvas-transparent"
     d="M16 16h-16v-16h16v16z"
     id="canvas" />
  <path
     class="icon-vs-out"
     d="M15 0v16h-14v-16h14z"
     id="outline"
     style="fill:#2d2d30;fill-opacity:1" />
  <path
     class="icon-vs-bg"
     d="M11 4h-7v-1h7v1zm-4 9h2v-4h-2v4zm3 0h2v-6h-2v6zm-4-6h-2v1h2v-1zm8-6v14h-12v-14h12zm-1 1h-10v12h10v-12zm-7 9h-2v2h2v-2zm2-6h-4v1h4v-1z"
     id="iconBg"
     style="fill:#c5c5c5;fill-opacity:1" />
  <path
     class="icon-vs-fg"
     d="M3 2v12h10v-12h-10zm1 1h7v1h-7v-1zm0 2h4v1h-4v-1zm2 8h-2v-2h2v2zm0-5h-2v-1h2v1zm3 5h-2v-4h2v4zm3 0h-2v-6h2v6z"
     id="iconFg"
     style="fill:#2d2d30;fill-opacity:1" />
</svg>
