<svg xmlns="http://www.w3.org/2000/svg" viewBox="0 0 16 16">
  <defs>
    <style>.canvas{fill: none; opacity: 0;}.light-defaultgrey-10{fill: #212121; opacity: 0.1;}.light-defaultgrey{fill: #212121; opacity: 1;}.light-shadow{fill: #000000; opacity: 0.1;}.cls-1{opacity:0.1;}.cls-2{opacity:0.75;}</style>
  </defs>
  <title>IconLightDuplicate</title>
  <g id="canvas" class="canvas">
    <path class="canvas" d="M16,0H0V16H16Z" />
  </g>
  <g id="level-2">
    <g class="cls-1">
      <path class="light-defaultgrey-10" d="M11.5,4.5V12h-6L5,11.5v-7Z" />
      <path class="light-defaultgrey" d="M12,4.5V12H11V5H5V4h6.5Z" />
    </g>
    <g class="cls-2">
      <path class="light-defaultgrey-10" d="M11.5,12v2.5h-9V4.5H5v7l.5.5Z" />
      <path class="light-defaultgrey" d="M12,12v2.5l-.5.5h-9L2,14.5V4.5L2.5,4H5V5H3v9h8V12Z" />
    </g>
  </g>
  <g id="level-1">
    <path class="light-shadow" d="M14.854,5.146l-3-3L11.5,2h-6L5,2.5v10l.5.5h9l.5-.5v-7ZM14,12H6V3h5V6h3Z" />
    <path class="light-defaultgrey-10" d="M14.5,4.5v7h-9V1.5h6Z" />
    <path class="light-defaultgrey" d="M14.854,4.142l-3-3L11.5,1h-6L5,1.5v10l.5.5h9l.5-.5v-7ZM6,11V2h5V5h3v6Z" />
    <path class="light-defaultgrey" d="M7,8h6V9H7ZM7,6V7h6V6Zm3-2H7V5h3Z" />
  </g>
</svg>
