<svg xmlns="http://www.w3.org/2000/svg" viewBox="0 0 16 16"><style>.icon-canvas-transparent{opacity:0;fill:#2d2d30}.icon-vs-out{fill:#2d2d30}.icon-vs-bg{fill:#c5c5c5}</style><path class="icon-canvas-transparent" d="M16 16H0V0h16v16z" id="canvas"/><path class="icon-vs-out" d="M4.5 7.5v-1.5H3.5v1.5H2v-1.5H0.5V4.5h1.5V3.5H0.5V2h1.5V0.5h1.5v1.5h1V0.5h1.5v1.5h1.5v1.5h-1.5v1h1.5v1.5h-1.5v1.5H4.5z" id="outline"/><g id="iconBg"><path class="icon-vs-bg" d="M7 3V2.5h-1.5V1h-0.5v1.5H3V1H2.5v1.5H1v0.5h1.5v2H1v0.5h1.5v1.5h0.5v-1.5h2v1.5h0.5v-1.5h1.5v-0.5h-1.5V3h1.5zm-2 2H3V3h2v2z"/></g><path class="icon-vs-out" d="M16 11.877L11.896 16h-.831l-4.509-4.538 2.121-2.119L10 10.669V0h3v10.653l1.304-1.318L16 11.055v.822z" id="outline"/><g id="iconBg"><path class="icon-vs-bg" d="M7.324 5.242m6.979 5.516L12 13.086V1h-1v12.086l-2.324-2.328-.707.707L11.482 15 15 11.465l-.697-.707z"/></g></svg>