<svg xmlns="http://www.w3.org/2000/svg" viewBox="0 0 16 16">
  <defs>
    <style>.canvas{fill: none; opacity: 0;}.light-blue-10{fill: #45a2ff; opacity: 0.1;}.light-blue{fill: #45a2ff; opacity: 1;}.light-defaultgrey-10{fill: #dedede; opacity: 0.1;}.light-defaultgrey-70{fill: #dedede; opacity: 0.7;}.light-defaultgrey{fill: #dedede; opacity: 1;}.cls-1{opacity:0.75;}</style>
  </defs>
  <title>IconLightLocalVariable</title>
  <g id="canvas">
    <path class="canvas" d="M16,16H0V0H16Z" />
    <path class="canvas" d="M16,16H0V0H16Z" />
  </g>
  <g id="level-1">
    <g class="cls-1">
      <path class="light-blue-10" d="M10.494,3.169,13.5,6.176v3.5l-7,3.889L3.494,10.556v-3.5Z" />
      <path class="light-blue" d="M14,6.176v3.5l-.256.437L6.744,14l-.6-.084L3.14,10.91,3,10.556v-3.5l.251-.437-.111.791.854.853v2.084L6,12.355V10.271l.147.147.6.084L7,10.359v2.354L13,9.38V7.026l.744-.413.11-.791Z" />
    </g>
    <path class="light-blue-10" d="M13.5,6.176l-7,3.889L3.494,7.058l7-3.889Z" />
    <path class="light-blue" d="M6.744,10.5l-.6-.084L3.14,7.412l.111-.791,7-3.889.6.084,3.006,3.006-.11.791ZM4.316,7.173,6.587,9.444l6.091-3.383L10.407,3.789Z" />

    <path class="light-defaultgrey-70" d="M4,14H1.5L1,13.5V2.5L1.5,2H4V3H2V13H4ZM15.5,2H13V3h2V13H13v1h2.5l.5-.5V2.5Z" />
    <path class="light-defaultgrey-10" d="M15.5,11.5a1.99,1.99,0,0,1-.148.75l-.138.265c-.2.331-3.214,2.81-3.214,2.81s-3.018-2.479-3.214-2.81l-.138-.265A1.993,1.993,0,0,1,12,10.19a1.992,1.992,0,0,1,3.5,1.31Z" />
    <path class="light-defaultgrey" d="M13.5,9a2.478,2.478,0,0,0-1.5.509A2.491,2.491,0,0,0,8,11.5a2.525,2.525,0,0,0,.2.979l.152.293a33.618,33.618,0,0,0,3.327,2.94l.317.261.317-.261a31.686,31.686,0,0,0,3.342-2.968l.156-.306A2.5,2.5,0,0,0,13.5,9ZM14.9,12.047l-.1.192c-.167.218-1.5,1.364-2.8,2.438-1.3-1.074-2.63-2.217-2.771-2.39l-.117-.224a1.493,1.493,0,0,1,2.512-1.544l.376.43.376-.43A1.494,1.494,0,0,1,14.9,12.047Z" />

  </g>
</svg>
