<svg xmlns="http://www.w3.org/2000/svg" viewBox="0 0 16 16">
  <defs>
    <style>.canvas{fill: none; opacity: 0;}.light-yellow-10{fill: #ffd566; opacity: 0.1;}.light-yellow{fill: #ffd566; opacity: 1;}.light-defaultgrey{fill: #dedede; opacity: 1;}</style>
  </defs>
  <title>IconLightFolderClosed</title>
  <g id="canvas" class="canvas">
    <path class="canvas" d="M16,16H0V0H16Z" />
  </g>
  <g id="level-1">
    <path class="light-yellow-10" d="M14.5,3.5v9H1.5V2.5h6l1,1Z" />
    <path class="light-yellow" d="M14.5,3H8.707l-.853-.854L7.5,2h-6L1,2.5v10l.5.5h13l.5-.5v-9ZM7.293,3l.488.488L7.268,4H2V3ZM14,12H2V5H7.475l.354-.146L8.682,4H14Z" />
    <path class="light-defaultgrey" d="M4.844,13.134H4.819a1.361,1.361,0,0,1-1.377,1.05,1.294,1.294,0,0,1-1.054-.491,2.028,2.028,0,0,1-.4-1.321,2.94,2.94,0,0,1,.55-1.826,1.727,1.727,0,0,1,1.447-.728,1.042,1.042,0,0,1,.611.188.846.846,0,0,1,.346.452h.015q.015-.136.073-.562H5.84q-.229,2.578-.23,2.627,0,.967.5.967a.88.88,0,0,0,.762-.539,2.841,2.841,0,0,0,.3-1.4A2.781,2.781,0,0,0,6.36,9.479a3.1,3.1,0,0,0-2.268-.8,3.03,3.03,0,0,0-2.3.971,3.413,3.413,0,0,0-.913,2.432A3.15,3.15,0,0,0,1.753,14.4a3.187,3.187,0,0,0,2.368.884,4.608,4.608,0,0,0,2.007-.4v.752A5.517,5.517,0,0,1,3.994,16a3.963,3.963,0,0,1-2.9-1.074A3.758,3.758,0,0,1,0,12.113,4.046,4.046,0,0,1,1.162,9.149,4,4,0,0,1,4.131,7.973a4.067,4.067,0,0,1,2.805.986,3.277,3.277,0,0,1,1.111,2.573,2.934,2.934,0,0,1-.6,1.907,1.83,1.83,0,0,1-1.472.745Q4.849,14.184,4.844,13.134Zm-.777-2.622a.989.989,0,0,0-.866.527,2.436,2.436,0,0,0-.33,1.314,1.39,1.39,0,0,0,.222.832.7.7,0,0,0,.594.3.946.946,0,0,0,.849-.554,2.972,2.972,0,0,0,.313-1.467Q4.849,10.512,4.067,10.512Z" />
  </g>
</svg>
