<?xml version="1.0" encoding="UTF-8" standalone="no"?>
<!-- Generator: Adobe Illustrator 18.1.1, SVG Export Plug-In . SVG Version: 6.00 Build 0)  -->

<svg
   xmlns:dc="http://purl.org/dc/elements/1.1/"
   xmlns:cc="http://creativecommons.org/ns#"
   xmlns:rdf="http://www.w3.org/1999/02/22-rdf-syntax-ns#"
   xmlns:svg="http://www.w3.org/2000/svg"
   xmlns="http://www.w3.org/2000/svg"
   xmlns:sodipodi="http://sodipodi.sourceforge.net/DTD/sodipodi-0.dtd"
   xmlns:inkscape="http://www.inkscape.org/namespaces/inkscape"
   version="1.1"
   x="0px"
   y="0px"
   width="16px"
   height="16px"
   viewBox="0 0 16 16"
   style="enable-background:new 0 0 16 16;"
   xml:space="preserve"
   id="svg7514"
   sodipodi:docname="tree-primarykey.svg"
   inkscape:version="0.92.2 (5c3e80d, 2017-08-06)"><metadata
     id="metadata7520"><rdf:RDF><cc:Work
         rdf:about=""><dc:format>image/svg+xml</dc:format><dc:type
           rdf:resource="http://purl.org/dc/dcmitype/StillImage" /></cc:Work></rdf:RDF></metadata><defs
     id="defs7518" /><sodipodi:namedview
     pagecolor="#000000"
     bordercolor="#999999"
     borderopacity="1"
     objecttolerance="10"
     gridtolerance="10"
     guidetolerance="10"
     inkscape:pageopacity="0"
     inkscape:pageshadow="2"
     inkscape:window-width="780"
     inkscape:window-height="480"
     id="namedview7516"
     showgrid="false"
     inkscape:zoom="14.75"
     inkscape:cx="8"
     inkscape:cy="8"
     inkscape:window-x="0"
     inkscape:window-y="0"
     inkscape:window-maximized="0"
     inkscape:current-layer="svg7514" /><style
     type="text/css"
     id="style7500">
	.icon-canvas-transparent{opacity:0;fill:#090909;}
	.icon-vs-out{fill:#090909;}
	.icon-vs-bg{fill:#bdbdbd;}
	.icon-vs-fg{fill:#0f0e10;}
</style><g
     id="canvas"><path
       class="icon-canvas-transparent"
       d="M16,16H0V0h16V16z"
       id="path7502" /></g><g
     id="outline"><path
       class="icon-vs-out"
       d="M8,1c2.206,0,4,1.794,4,4c0,1.475-0.81,2.75-2,3.443V9h2v5h-2v1H6V8.443   C4.811,7.75,4,6.475,4,5C4,2.794,5.794,1,8,1z"
       id="path7505" /></g><g
     id="iconBg"><path
       class="icon-vs-bg"
       d="M5,5c0,1.301,0.839,2.401,2,2.815V14h2v-1h2v-1H9v-1h2v-1H9V7.815   C10.161,7.401,11,6.301,11,5c0-1.654-1.346-3-3-3C6.347,2,5,3.346,5,5z M9,5c0,0.551-0.449,1-1,1S7,5.551,7,5c0-0.553,0.449-1,1-1   S9,4.447,9,5z"
       id="path7508"
       style="fill:#e5a03d;fill-opacity:1" /></g><g
     id="iconFg"><path
       class="icon-vs-fg"
       d="M8,4c0.551,0,1,0.447,1,1c0,0.551-0.449,1-1,1S7,5.551,7,5C7,4.447,7.449,4,8,4"
       id="path7511" /></g></svg>