<svg xmlns="http://www.w3.org/2000/svg" viewBox="0 0 16 16">
  <defs>
    <style>.canvas{fill: none; opacity: 0;}.light-blue-10{fill: #07101a; opacity: 1;}.light-blue{fill: #45a2ff; opacity: 1;}.light-yellow-10{fill: #ffd566; opacity: 0.1;}.light-yellow{fill: #ffd566; opacity: 1;}.cls-1{opacity:0.75;}</style>
  </defs>
  <title>IconLightFolderClosed</title>
  <g id="canvas" class="canvas">
    <path class="canvas" d="M16,16H0V0H16Z" />
  </g>
  <g id="level-1">
    <path class="light-yellow-10" d="M14.5,3.5v9H1.5V2.5h6l1,1Z" />
    <path class="light-yellow" d="M14.5,3H8.707l-.853-.854L7.5,2h-6L1,2.5v10l.5.5h13l.5-.5v-9ZM7.293,3l.488.488L7.268,4H2V3ZM14,12H2V5H7.475l.354-.146L8.682,4H14Z" />
    <path class="light-blue-10" d="M6.4952,6.1352,8.90,8.5408v2.80l-5.6,3.1112L0.8952,12.0448v-2.80Z" />
    <path class="light-blue" d="M9.3,8.5408v2.80l-0.2056,0.3496L3.4944,14.8l-0.48,-0.0672L0.612,12.328,0.5,12.0448v-2.80l0.200,-0.3496,-0.088,0.6328,0.6832,0.6824v1.6672L2.9,13.4840V11.8168l0.1168,0.1176,0.48,0.0672L3.7,11.8872v1.8832l4.8,-2.6664V9.2208l0.5944,-0.3304,0.0888,-0.6328Z" />
    <path class="light-blue-10" d="M8.90,8.5408l-5.6,3.1112L0.8952,9.2464l5.6,-3.1112Z" />
    <path class="light-blue" d="M3.4944,12.00l-0.48,-0.0672L0.612,9.5296l0.088,-0.6328,5.6,-3.1112,0.48,0.0672,2.4056,2.4048,-0.0888,0.6328ZM1.5528,9.3384l1.8168,1.8168,4.8728,-2.7064L6.4256,6.6312Z" />
  </g>
</svg>
