<svg xmlns="http://www.w3.org/2000/svg" viewBox="0 0 16 16"><style>.icon-canvas-transparent{opacity:0;fill:#f6f6f6}.icon-vs-out{fill:#f6f6f6}.icon-vs-bg{fill:#424242}.icon-white{fill:#fff}</style><path class="icon-canvas-transparent" d="M16 16H0V0h16v16z" id="canvas"/><path class="icon-vs-out" d="M9 9.313L9 7.656V0H0v9h1v3h1.586L1 13.586V16h7v-3H6.449l1.013-1H8v-.576z" id="outline"/><path class="icon-vs-bg" d="M2 10h5v1h-.048l.048.051L4.013 14H7v1H2v-1l3-3H2v-1zm2.518-6.75L3.818 5h1.4l-.7-1.75zM1 1h7v7H1V1zm1 6h1l.399-1H5.6L6 7h1L5 2H4L2 7z" id="iconBg"/><path class="icon-white" d="M6.018 7h1l-2-5h-1l-2 5h1l.399-1h2.201l.4 1zm-2.2-2l.7-1.75.7 1.75h-1.4z" id="iconFg"/><path class="icon-vs-out" d="M16 11.877L11.896 16h-.831l-4.509-4.538 2.121-2.119L10 10.669V0h3v10.653l1.304-1.318L16 11.055v.822z" id="outline"/><g id="iconBg"><path class="icon-vs-bg" d="M7.324 5.242m6.979 5.516L12 13.086V1h-1v12.086l-2.324-2.328-.707.707L11.482 15 15 11.465l-.697-.707z"/></g></svg>