<svg xmlns="http://www.w3.org/2000/svg" viewBox="0 0 16 16"><style>.st0{opacity:0;fill:#fff;stroke:#000;stroke-miterlimit:10}.st1{fill:#f6f6f6}.st2{fill:#424242}</style><g id="outline"><path class="st0" d="M0 0h16v16H0z"/><path class="st1" d="M11.536 7h.463V3H6.617l1-2H3.464L.797 5l2.667 4h-.463v4h5.382l-1 2h4.153l2.667-4-2.667-4zM7.617 9l-1-2h.766l1 2h-.766z"/></g><g id="icon_x5F_bg"><path class="st2" d="M4.001 10v2h6l-1 2h2l2-3-2-3h-2l1 2h-6zM10.999 6V4h-6l1-2h-2l-2 3 2 3h2l-1-2h6z"/></g></svg>