<svg xmlns="http://www.w3.org/2000/svg" viewBox="0 0 16 16"><style>.st0{opacity:0}.st0,.st1{fill:#f6f6f6}.st2{fill:none}.st3{fill:#424242}.st4{fill:#f0eff1}</style><g id="outline"><path class="st0" d="M0 0h16v16H0z"/><path class="st1" d="M16 0H7v6H2v9h9v-2h5z"/></g><g id="icon_x5F_bg"><path class="st2" d="M5.5 11.5L4 13h3.5z"/><path class="st2" d="M9 12.5V8H4v3.5L5.5 10 9 12.5zm-1.25-4a.75.75 0 1 1 0 1.5.75.75 0 0 1 0-1.5zM13 10h1v1h-1zM9 2h5v1H9zM9 4h5v1H9z"/><circle class="st3" cx="7.75" cy="9.25" r=".75"/><path class="st3" d="M8 1v5h3v6h4V1H8zm6 10h-1v-1h1v1zm0-6H9V4h5v1zm0-2H9V2h5v1z"/><path class="st3" d="M3 14h7V7H3v7zm1-6h5v4.5L5.5 10 4 11.5V8zm1.5 3.5l2 1.5H4l1.5-1.5z"/></g><g id="icon_x5F_fg"><circle class="st2" cx="7.75" cy="9.25" r=".75"/><path class="st4" d="M4 11.5L5.5 10 9 12.5V8H4v3.5zm3.75-3a.75.75 0 1 1 0 1.5.75.75 0 0 1 0-1.5z"/><path class="st4" d="M4 13h3.5l-2-1.5zM9 2h5v1H9zM9 4h5v1H9zM13 10h1v1h-1z"/></g></svg>