<svg xmlns="http://www.w3.org/2000/svg" viewBox="0 0 16 16">
  <defs>
    <style>.canvas{fill: none; opacity: 0;}.light-purple-10{fill: #6936aa; opacity: 0.1;}.light-purple{fill: #6936aa; opacity: 1;}.light-defaultgrey-10{fill: #212121; opacity: 0.1;}.light-defaultgrey{fill: #212121; opacity: 1;}.cls-1{opacity:0.75;}</style>
  </defs>
  <title>IconLightMethodPrivate</title>
  <g id="canvas" class="canvas">
    <path class="canvas" d="M16,16H0V0H16Z" />
  </g>
  <g id="level-1">
    <g class="cls-1">
      <path class="light-purple-10" d="M9,11.268,6,13,1.5,10.4V4.993L6,2.4l4.5,2.6V8.381A2.926,2.926,0,0,0,10,10v.113l-.065.038L9,11.086Z" />
      <path class="light-purple" d="M9.935,10.151,6.5,12.134V8.075L10,6.055V10a2.985,2.985,0,0,1,1-2.22v-2.6l-.25-.433L6.25,1.962h-.5L1.25,4.745,1,5.177V10.4l.25.433,4.5,2.6h.5L9,11.845v-.759ZM5.5,12.134,2,10.113V6.055l3.5,2.02ZM6,7.21,2.476,5.176,6,2.972,9.517,5.164Z" />
    </g>
    <path class="light-purple-10" d="M6.009,2.4,10.5,5.189,6,7.787l-4.5-2.6Z" />
    <path class="light-purple" d="M5.753,8.221l-4.5-2.6-.013-.858L5.746,1.97h.527l4.491,2.8-.014.857-4.5,2.6ZM2.474,5.174,6,7.21,9.528,5.174,6.009,2.983Z" />
    <path class="light-defaultgrey-10" d="M15.5,11.5v4h-5v-4Z" />
    <path class="light-defaultgrey" d="M15.5,11H15V10a2,2,0,0,0-4,0v1h-.5l-.5.5v4l.5.5h5l.5-.5v-4ZM12,10a1,1,0,0,1,2,0v1H12Zm3,5H11V12h4Z" />
  </g>
</svg>
