<svg xmlns="http://www.w3.org/2000/svg" viewBox="0 0 16 16"><style>.icon-canvas-transparent{opacity:0;fill:#f6f6f6}.icon-vs-out{fill:#f6f6f6}.icon-vs-bg{fill:#424242}.icon-vs-fg{fill:#f0eff1}.icon-vs-action-green{fill:#388a34}</style><path class="icon-canvas-transparent" d="M16 16H0V0h16v16z" id="canvas"/><path class="icon-vs-out" d="M8.691 9.944L10 12.234v.568L8.535 15h-6.07L1 12.803v-.568l2-3.5V8H2V5h4V0l8.803 5.869-6.112 4.075z" id="outline"/><path class="icon-vs-fg" d="M4.032 11l.8-1.445L5 9.303V7h1v2.303l.168.252.8 1.445H4.032z" id="iconFg"/><g id="iconBg"><path class="icon-vs-bg" d="M7 9V7h1V6H3v1h1v2l-2 3.5L3 14h5l1-1.5L7 9zm-2.968 2l.8-1.445L5 9.303V7h1v2.303l.168.252.8 1.445H4.032z"/><path class="icon-vs-action-green" d="M7 5V1.869l6 4-4.806 3.204L8 8.734V8h1V5H7z"/></g></svg>