<svg xmlns="http://www.w3.org/2000/svg" viewBox="0 0 16 16"><style>.st0{opacity:0}.st0,.st1{fill:#f6f6f6}.st2{fill:none}.st3{fill:#424242}.st4{fill:#f0eff1}</style><g id="outline"><path class="st0" d="M0 0h16v16H0z"/><path class="st1" d="M1 0h15v16H1z"/></g><g id="icon_x5F_bg"><path class="st2" d="M3 6h3v2H3zM7 12h3v2H7zM3 12h3v2H3zM7 6h3v2H7zM3 9h3v2H3zM7 9h3v2H7zM11 12h3v2h-3zM11 6h3v2h-3zM11 9h3v2h-3z"/><path class="st3" d="M14 5h-3V4h-1v1H7V4H6v1H3V4H2v11h13V4h-1v1zm-8 9H3v-2h3v2zm0-3H3V9h3v2zm0-3H3V6h3v2zm4 6H7v-2h3v2zm0-3H7V9h3v2zm0-3H7V6h3v2zm4 6h-3v-2h3v2zm0-3h-3V9h3v2zm0-3h-3V6h3v2zM2 1h13v2H2z"/></g><g id="icon_x5F_fg"><path class="st4" d="M3 4h3v1H3zM7 12h3v2H7zM7 9h3v2H7zM3 12h3v2H3zM3 9h3v2H3zM3 6h3v2H3zM11 6h3v2h-3zM11 4h3v1h-3zM11 9h3v2h-3zM7 6h3v2H7zM11 12h3v2h-3zM7 4h3v1H7z"/></g></svg>