<svg xmlns="http://www.w3.org/2000/svg" viewBox="0 0 16 16">
  <defs>
    <style>.canvas{fill: none; opacity: 0;}.light-defaultgrey-10{fill: #212121; opacity: 0.1;}.light-defaultgrey{fill: #212121; opacity: 1;}.light-green{fill: #1f801f; opacity: 1;}.cls-1{opacity:0.75;}</style>
  </defs>
  <title>IconLightValidationRule</title>
  <g id="canvas" class="canvas">
    <path class="canvas" d="M16,16H0V0H16Z" />
  </g>
  <g id="level-1">
    <g class="cls-1">
      <path class="light-defaultgrey-10" d="M2.5,1.5v13H8.53l-.65-.65,1.9-1.9.22-.22,1.65,1.65L13,12.03l.5-.51V1.5Z" />
      <path class="light-defaultgrey" d="M13.5,1H2.5L2,1.5v13l.5.5H9.03l-1-1H3V2H13V12.03l.5-.51.5-.5V1.5Z" />
    </g>
    <path class="light-defaultgrey-10" d="M8,3.5A2.493,2.493,0,0,0,6.5,7.99v3.87L8,10.36l1.5,1.5V7.99A2.493,2.493,0,0,0,8,3.5Z" />
    <path class="light-defaultgrey" d="M8,3A2.989,2.989,0,0,0,6,8.22v3.64l.85.35L8,11.06l1.15,1.15.63-.26.22-.22V8.22A2.989,2.989,0,0,0,8,3ZM7,10.65V8.82a2.868,2.868,0,0,0,2,0v1.83L8.35,10h-.7ZM8,8a2,2,0,1,1,2-2A2.006,2.006,0,0,1,8,8Z" />
    <path class="light-green" d="M12,15.854h-.707l-2-2L10,13.146l1.646,1.647,3.647-3.647.707.708Z" />
  </g>
</svg>
