<svg xmlns="http://www.w3.org/2000/svg" viewBox="0 0 16 16"><style>.icon-canvas-transparent{opacity:0;fill:#f6f6f6}.icon-vs-out{fill:#f6f6f6}.icon-vs-bg{fill:#424242}.icon-vs-fg{fill:#f0eff1}</style><path class="icon-canvas-transparent" d="M16 16H0V0h16v16z" id="canvas"/><path class="icon-vs-out" d="M3.766 15c-.73 0-1.38-.379-1.74-1.015a1.977 1.977 0 0 1 .025-2.015L4 8.723V8H3V5h3V2h7v3h-1v.723l1.949 3.248c.376.627.385 1.38.024 2.016A1.977 1.977 0 0 1 12.233 12h-1.268a1.98 1.98 0 0 1 .009 1.985A1.977 1.977 0 0 1 9.233 15H3.766z" id="outline"/><path class="icon-vs-bg" d="M8 9V7h1V6H4v1h1v2l-2.091 3.486A1 1 0 0 0 3.766 14h5.468a1 1 0 0 0 .858-1.514L8 9zm-2.968 2L6 9.303V7h1v2.303L7.968 11H5.032zm7.202 0h-1.868L9 8.723V8h1.968L10 6.303V4H9v1H8V4H7V3h5v1h-1v2l2.091 3.485A1 1 0 0 1 12.234 11z" id="iconBg"/><path class="icon-vs-fg" d="M5.032 11L6 9.303V7h1v2.303L7.968 11H5.032zM10 5V4H9v1h1zm0 1.303V8h.968L10 6.303z" id="iconFg"/></svg>