<svg xmlns="http://www.w3.org/2000/svg" viewBox="0 0 16 16">
  <defs>
    <style>.canvas{fill: none; opacity: 0;}.light-blue-10{fill: #E5EEF8; opacity: 1;}.light-blue{fill: #005dba; opacity: 1;}.light-yellow-10{fill: #996f00; opacity: 0.1;}.light-yellow{fill: #996f00; opacity: 1;}.light-defaultgrey-10{fill: #ffffff; opacity: 1;}.light-defaultgrey-70{fill: #212121; opacity: 0.7;}.light-defaultgrey{fill: #212121; opacity: 1;}.cls-1{opacity:0.75;}</style>
  </defs>
  <title>IconLightFolderClosed</title>
  <g id="canvas" class="canvas">
    <path class="canvas" d="M16,16H0V0H16Z" />
  </g>
  <g id="level-1">
    <path class="light-yellow-10" d="M14.5,3.5v9H1.5V2.5h6l1,1Z" />
    <path class="light-yellow" d="M14.5,3H8.707l-.853-.854L7.5,2h-6L1,2.5v10l.5.5h13l.5-.5v-9ZM7.293,3l.488.488L7.268,4H2V3ZM14,12H2V5H7.475l.354-.146L8.682,4H14Z" />

    <path class="light-blue-10" d="M6.4952,6.1352,8.90,8.5408v2.80l-5.6,3.1112L0.8952,12.0448v-2.80Z" />
    <path class="light-blue" d="M9.3,8.5408v2.80l-0.2056,0.3496L3.4944,14.8l-0.48,-0.0672L0.612,12.328,0.5,12.0448v-2.80l0.200,-0.3496,-0.088,0.6328,0.6832,0.6824v1.6672L2.9,13.4840V11.8168l0.1168,0.1176,0.48,0.0672L3.7,11.8872v1.8832l4.8,-2.6664V9.2208l0.5944,-0.3304,0.0888,-0.6328Z" />
    <path class="light-blue-10" d="M8.90,8.5408l-5.6,3.1112L0.8952,9.2464l5.6,-3.1112Z" />
    <path class="light-blue" d="M3.4944,12.00l-0.48,-0.0672L0.612,9.5296l0.088,-0.6328,5.6,-3.1112,0.48,0.0672,2.4056,2.4048,-0.0888,0.6328ZM1.5528,9.3384l1.8168,1.8168,4.8728,-2.7064L6.4256,6.6312Z" />

    <path class="light-defaultgrey-10" d="M13.844,13.07l.426,2.488-2.234-1.175L9.8,15.558l.427-2.488L8.42,11.308l2.5-.363,1.118-2.264,1.117,2.264,2.5.363Z" />
    <path class="light-defaultgrey" d="M16,11.666l-.276-.853-2.239-.326-1-2.028h-.9l-1,2.028-2.238.326-.277.853L9.69,13.244l-.382,2.229.725.527,2-1.053,2,1.053.726-.527-.383-2.229Zm-2.394,2.978-1.337-.7H11.8l-1.339.7.256-1.49-.145-.443L9.494,11.656l1.5-.217.376-.273.67-1.356.669,1.356.376.273,1.5.217L13.5,12.711l-.144.443Z" />
  </g>
</svg>
