<svg xmlns="http://www.w3.org/2000/svg" viewBox="0 0 16 16"><style>.icon-canvas-transparent{opacity:0;fill:#f6f6f6}.icon-vs-out{fill:#f6f6f6}.icon-vs-bg{fill:#424242}.icon-vs-fg{fill:#f0eff1}</style><path class="icon-canvas-transparent" d="M16 16H0V0h16v16z" id="canvas"/><path class="icon-vs-out" d="M16 12H8.366l.582.971c.376.626.386 1.379.026 2.015A1.978 1.978 0 0 1 7.233 16H1.766c-.73 0-1.38-.379-1.74-1.015-.012-.02-.015-.043-.026-.063v-1.833c.02-.039.029-.08.051-.118L2 9.723V9H1V6h1V0h14v12z" id="outline"/><path class="icon-vs-bg" d="M12 6h-2V4h2v2zM3 1v5h1V3h10v7H7.152l.571 1H15V1H3zm5 4H6v1h2v2h1V5H8zm4 2h-2v2h2V7zm-3.909 6.486A1 1 0 0 1 7.234 15H1.766a1 1 0 0 1-.857-1.514L3 10V8H2V7h5v1H6v2l2.091 3.486zM5.968 12L5 10.303V8H4v2.303L3.032 12h2.936z" id="iconBg"/><path class="icon-vs-fg" d="M4 3v3h2V5h3v3H8v1H7v.734l.152.266H14V3H4zm8 6h-2V7h2v2zm0-3h-2V4h2v2zM5 8v2.303L5.968 12H3.032L4 10.303V8h1z" id="iconFg"/></svg>