<svg xmlns="http://www.w3.org/2000/svg" viewBox="0 0 16 16"><style>.st0{opacity:0}.st0,.st1{fill:#f6f6f6}.st2{fill:#424242}.st3{fill:#f0eff1}.st4{fill:#388a34}</style><g id="outline"><path class="st0" d="M0 0h16v16H0z"/><path class="st1" d="M12.061 0H6c-.97 0-2 .701-2 2v2.587l-4 4v.83l2.818 2.806.182-.182V14h2.195l2.002 2h.783l2.001-2H14c1.299 0 2-1.03 2-2V3.556L12.061 0z"/></g><g id="icon_x5F_bg"><path class="st2" d="M11.641 1H5.964S5 1 5 2v3.583l1 1V2h5v3h3v7h-3.946l.965.963-.038.037h2.983c1 0 1.035-1 1.035-1V4l-3.358-3z"/><path class="st3" d="M11 5V2H6v4.584l1.265 1.265.944-.948 2.806 2.798-1.632 1.632.671.669H14V5z"/></g><path class="st4" d="M8.215 11.578l-.42.422H5v-2h1.529l-.332.33 1.388 1.385L9.6 9.7 8.211 8.316 7.529 9H4.628l1.185-1.187L4.001 6 1 9.001l1.818 1.81L4 9.637V13h2.796l-.595.592 1.388 1.385 2.015-2.013z" id="color_x5F_importance"/></svg>