<?xml version="1.0" encoding="UTF-8" standalone="no"?>
<svg
   xmlns:dc="http://purl.org/dc/elements/1.1/"
   xmlns:cc="http://creativecommons.org/ns#"
   xmlns:rdf="http://www.w3.org/1999/02/22-rdf-syntax-ns#"
   xmlns:svg="http://www.w3.org/2000/svg"
   xmlns="http://www.w3.org/2000/svg"
   xmlns:sodipodi="http://sodipodi.sourceforge.net/DTD/sodipodi-0.dtd"
   xmlns:inkscape="http://www.inkscape.org/namespaces/inkscape"
   viewBox="0 0 16 16"
   version="1.1"
   id="svg1723"
   sodipodi:docname="tree-tableextension.svg"
   inkscape:version="0.92.2 (5c3e80d, 2017-08-06)">
  <metadata
     id="metadata1729">
    <rdf:RDF>
      <cc:Work
         rdf:about="">
        <dc:format>image/svg+xml</dc:format>
        <dc:type
           rdf:resource="http://purl.org/dc/dcmitype/StillImage" />
      </cc:Work>
    </rdf:RDF>
  </metadata>
  <defs
     id="defs1727" />
  <sodipodi:namedview
     pagecolor="#ffffff"
     bordercolor="#666666"
     borderopacity="1"
     objecttolerance="10"
     gridtolerance="10"
     guidetolerance="10"
     inkscape:pageopacity="0"
     inkscape:pageshadow="2"
     inkscape:window-width="906"
     inkscape:window-height="598"
     id="namedview1725"
     showgrid="false"
     inkscape:zoom="14.75"
     inkscape:cx="8"
     inkscape:cy="8"
     inkscape:window-x="0"
     inkscape:window-y="0"
     inkscape:window-maximized="0"
     inkscape:current-layer="svg1723" />
  <style
     id="style1708">.st0{opacity:0}.st0,.st1{fill:#f6f6f6}.st2{fill:none}.st3{fill:#424242}.st4{fill:#f0eff1}</style>
  <g
     id="outline">
    <path
       class="st0"
       d="M0 0h16v16H0z"
       id="path1710" />
    <path
       class="st1"
       d="M1 0h15v16H1z"
       id="path1712"
       style="fill:#2d2d30;fill-opacity:1" />
  </g>
  <g
     id="icon_x5F_bg">
    <path
       class="st2"
       d="M3 6h3v2H3zM7 12h3v2H7zM3 12h3v2H3zM7 6h3v2H7zM3 9h3v2H3zM7 9h3v2H7zM11 12h3v2h-3zM11 6h3v2h-3zM11 9h3v2h-3z"
       id="path1715" />
    <path
       class="st3"
       d="M14 5h-3V4h-1v1H7V4H6v1H3V4H2v11h13V4h-1v1zm-8 9H3v-2h3v2zm0-3H3V9h3v2zm0-3H3V6h3v2zm4 6H7v-2h3v2zm0-3H7V9h3v2zm0-3H7V6h3v2zm4 6h-3v-2h3v2zm0-3h-3V9h3v2zm0-3h-3V6h3v2zM2 1h13v2H2z"
       id="path1717"
       style="fill:#c5c5c5;fill-opacity:1" />
  </g>
  <g
     id="icon_x5F_fg">
    <path
       class="st4"
       d="M3 4h3v1H3zM7 12h3v2H7zM7 9h3v2H7zM3 12h3v2H3zM3 9h3v2H3zM3 6h3v2H3zM11 6h3v2h-3zM11 4h3v1h-3zM11 9h3v2h-3zM7 6h3v2H7zM11 12h3v2h-3zM7 4h3v1H7z"
       id="path1720"
       style="fill:#2d2d30;fill-opacity:1" />
  </g>
</svg>
