<?xml version="1.0" encoding="UTF-8" standalone="no"?>
<svg
   xmlns:dc="http://purl.org/dc/elements/1.1/"
   xmlns:cc="http://creativecommons.org/ns#"
   xmlns:rdf="http://www.w3.org/1999/02/22-rdf-syntax-ns#"
   xmlns:svg="http://www.w3.org/2000/svg"
   xmlns="http://www.w3.org/2000/svg"
   xmlns:sodipodi="http://sodipodi.sourceforge.net/DTD/sodipodi-0.dtd"
   xmlns:inkscape="http://www.inkscape.org/namespaces/inkscape"
   width="16"
   height="16"
   version="1.1"
   id="svg8656"
   sodipodi:docname="tree-xmlport.svg"
   inkscape:version="0.92.2 (5c3e80d, 2017-08-06)">
  <metadata
     id="metadata8662">
    <rdf:RDF>
      <cc:Work
         rdf:about="">
        <dc:format>image/svg+xml</dc:format>
        <dc:type
           rdf:resource="http://purl.org/dc/dcmitype/StillImage" />
      </cc:Work>
    </rdf:RDF>
  </metadata>
  <defs
     id="defs8660" />
  <sodipodi:namedview
     pagecolor="#ffffff"
     bordercolor="#666666"
     borderopacity="1"
     objecttolerance="10"
     gridtolerance="10"
     guidetolerance="10"
     inkscape:pageopacity="0"
     inkscape:pageshadow="2"
     inkscape:window-width="1036"
     inkscape:window-height="568"
     id="namedview8658"
     showgrid="false"
     inkscape:zoom="14.75"
     inkscape:cx="8"
     inkscape:cy="8"
     inkscape:window-x="0"
     inkscape:window-y="0"
     inkscape:window-maximized="1"
     inkscape:current-layer="svg8656" />
  <style
     type="text/css"
     id="style8650">.icon-canvas-transparent{opacity:0;fill:#F6F6F6;} .icon-vs-out{fill:#F6F6F6;} .icon-vs-bg{fill:#424242;} .icon-vs-fg{fill:#F0EFF1;}</style>
  <rect
     class="icon-canvas-transparent"
     width="16"
     height="16"
     id="canvas" />
  <path
     class="icon-vs-out"
     d="M10.061 1h-6.061c-.97 0-2 .701-2 2v7.586l-2 2v.828l2.586 2.586h1.414v-.545c.524.338 1.213.545 2 .545s1.476-.207 2-.545v.545h1.414l1-1h1.586c1.299 0 2-1.03 2-2v-8.444l-3.939-3.556z"
     id="outline"
     style="fill:#f6f6f6;fill-opacity:1" />
  <path
     class="icon-vs-bg"
     d="M13 5v8s-.035 1-1.035 1h-.551l.586-.586v-7.414h-3v-3h-5v5.586l-1 1v-6.586c0-1 .964-1 .964-1h5.677l3.359 3zm-4 6v1l1 1-1 1v1l2-2-2-2zm-8 2l2 2v-1l-1-1 1-1v-1l-2 2zm7-1.801v2.6c0 .664-.896 1.201-2 1.201s-2-.537-2-1.201v-2.6c0-.662.896-1.199 2-1.199s2 .537 2 1.199zm-.5 0c0-.353-.642-.75-1.5-.75s-1.5.397-1.5.75c0 .356.642.75 1.5.75s1.5-.394 1.5-.75z"
     id="iconBg"
     style="fill:#424242;fill-opacity:1" />
  <path
     class="icon-vs-fg"
     d="M12 6v6.586l-4-4v.959c-.524-.338-1.213-.545-2-.545s-1.476.207-2 .545v-6.545h5v3h3zm-6 4.449c-.858 0-1.5.397-1.5.75 0 .356.642.75 1.5.75s1.5-.394 1.5-.75c0-.353-.642-.75-1.5-.75z"
     id="iconFg"
     style="fill:#f6f6f6;fill-opacity:1" />
</svg>
