<?xml version="1.0" encoding="UTF-8" standalone="no"?>
<svg
   xmlns:dc="http://purl.org/dc/elements/1.1/"
   xmlns:cc="http://creativecommons.org/ns#"
   xmlns:rdf="http://www.w3.org/1999/02/22-rdf-syntax-ns#"
   xmlns:svg="http://www.w3.org/2000/svg"
   xmlns="http://www.w3.org/2000/svg"
   xmlns:sodipodi="http://sodipodi.sourceforge.net/DTD/sodipodi-0.dtd"
   xmlns:inkscape="http://www.inkscape.org/namespaces/inkscape"
   viewBox="0 0 16 16"
   version="1.1"
   id="svg16517"
   sodipodi:docname="tree-fieldgroup.svg"
   inkscape:version="0.92.2 (5c3e80d, 2017-08-06)">
  <metadata
     id="metadata16523">
    <rdf:RDF>
      <cc:Work
         rdf:about="">
        <dc:format>image/svg+xml</dc:format>
        <dc:type
           rdf:resource="http://purl.org/dc/dcmitype/StillImage" />
      </cc:Work>
    </rdf:RDF>
  </metadata>
  <defs
     id="defs16521" />
  <sodipodi:namedview
     pagecolor="#ffffff"
     bordercolor="#666666"
     borderopacity="1"
     objecttolerance="10"
     gridtolerance="10"
     guidetolerance="10"
     inkscape:pageopacity="0"
     inkscape:pageshadow="2"
     inkscape:window-width="1178"
     inkscape:window-height="546"
     id="namedview16519"
     showgrid="false"
     inkscape:zoom="29.5"
     inkscape:cx="11.212496"
     inkscape:cy="7.4227882"
     inkscape:window-x="503"
     inkscape:window-y="69"
     inkscape:window-maximized="0"
     inkscape:current-layer="svg16517" />
  <style
     id="style16502">.st0{opacity:0}.st0,.st1{fill:#f6f6f6}.st2{fill:none}.st3{fill:#424242}.st4{fill:#f0eff1}</style>
  <g
     id="outline">
    <path
       class="st0"
       d="M0 0h16v16H0z"
       id="path16504" />
    <path
       class="st1"
       d="M15 6v6H9v-2H7V5.5H6V6c0 .624-.198 1.547-.5 2 .302.452.5 1.375.5 2v.5h1V14H6c-2.296-.023-4-1.005-4-3 0 0 .003-.965-.001-1L1 9.5v-3L2 6c.005-.041.007-1 .007-1 0-2.01 1.696-2.96 3.993-2.985L7 2v2h6v2h2z"
       id="path16506" />
  </g>
  <path
     style="fill:none"
     inkscape:connector-curvature="0"
     id="path16509"
     d="m 11,8 v 2 h 2 V 8 H 12 Z M 11,6 H 9 v 2 h 1 V 7 h 1 z"
     class="st2" />
  <path
     style="fill:#00539c;fill-opacity:1"
     inkscape:connector-curvature="0"
     id="path16511"
     d="M 5,10.5 V 10 C 5,9 4.605,8.315 4,8 4.605,7.678 5,7 5,6 V 5.507 C 5,4.5 5.5,4.5 6,4.5 V 3.003 C 3.5,3.003 3,4 3,5 V 6 C 3,7.162 2.356,6.978 2,7 v 2 c 0.387,0.024 1,-0.137 1,1 v 1 c 0,1 0.5,2 3,2 L 6.001,11.5 C 5.001,11.5 5,10.5 5,10.5 Z M 12,7 V 5 H 8 v 4 h 2 v 2 h 4 V 7 Z M 10,8 H 9 V 6 h 2 v 1 h -1 z m 3,2 H 11 V 8 h 2 z"
     class="st3" />
  <g
     id="icon_x5F_fg">
    <path
       class="st4"
       d="M11 6H9v2h1V7h1zM11 8h2v2h-2z"
       id="path16514" />
  </g>
</svg>
