<svg xmlns="http://www.w3.org/2000/svg" viewBox="0 0 18 18">
  <defs>
    <style>.canvas{fill: none; opacity: 0;}.light-defaultgrey-10{fill: #212121; opacity: 0.1;}.light-defaultgrey{fill: #212121; opacity: 1;}</style>
  </defs>
  <title>ResultsToRuleFile</title>
  <g id="canvas">
    <path class="canvas" d="M16,16H0V0H16Z" />
  </g>
  <g id="level-1">
    <path class="light-defaultgrey-10" d="M4.5,10.989v3.869L3,13.358l-1.5,1.5V10.989a2.5,2.5,0,1,1,3,0Z" />
    <path class="light-defaultgrey" d="M6,9a3,3,0,1,0-5,2.22v3.638l.854.353L3,14.065l1.146,1.146L5,14.858V11.22A2.985,2.985,0,0,0,6,9ZM4,13.651,3.354,13H2.646L2,13.651V11.816A2.966,2.966,0,0,0,3,12a2.966,2.966,0,0,0,1-.184ZM3,11A2,2,0,1,1,5,9,2,2,0,0,1,3,11Z" />
    <path class="light-defaultgrey-10" d="M10.5,1.5h-8V5.03A4.07,4.07,0,0,1,3,5a3.989,3.989,0,0,1,3,6.63V14.5h7.5V4.5Z" />
    <path class="light-defaultgrey" d="M13.85,4.15l-3-3L10.5,1h-8L2,1.5V5.13a4.021,4.021,0,0,1,.5-.1A4.07,4.07,0,0,1,3,5V2h7V5h3v9H6v1h7.5l.5-.5V4.5Z" />
  </g>
</svg>
