<svg xmlns="http://www.w3.org/2000/svg" viewBox="0 0 18 18">
  <defs>
    <style>.canvas{fill: #ddffdd; opacity: 1;}.light-defaultgrey{fill: #212121; opacity: 1;}</style>
  </defs>
  <title>IconLightDuplicate</title>
  <g id="level-1">
    <path class="light-defaultgrey" d="M13,17.5l-.5.5H3.154l1.02-1H12V13h1" />
    <path class="light-defaultgrey" d="M6,5H2v9.931L1,15.91V4.5L1.5,4h4" />
    <path class="light-defaultgrey" d="M17,3.5v10l-.5.5H7.154l1.02-1H16V4H13V1H6v9.931L5,11.91V0.5L5.5,0h8l.354.146,3,3Z" />
    <path class="light-defaultgrey" d="M1.85,17.857l6.455-6.385a3.078,3.078,0,1,0-.713-.7L1.15,17.143ZM10,11a2,2,0,1,1,2-2A2,2,0,0,1,10,11Z" />
  </g>
</svg>
