<svg xmlns="http://www.w3.org/2000/svg" width="16" height="16"><style type="text/css">.icon-canvas-transparent{opacity:0;fill:#F6F6F6;} .icon-vs-out{fill:#F6F6F6;} .icon-vs-bg{fill:#424242;} .icon-vs-fg{fill:#F0EFF1;}</style><path class="icon-canvas-transparent" d="M16 16h-16v-16h16v16z" id="canvas"/><path class="icon-vs-out" d="M4 16v-3.506c-.423.32-.947.506-1.5.506-1.378 0-2.5-1.121-2.5-2.5s1.122-2.5 2.5-2.5c.553 0 1.077.185 1.5.505v-4.505h4.505c-.32-.423-.505-.947-.505-1.5 0-1.378 1.121-2.5 2.5-2.5s2.5 1.122 2.5 2.5c0 .553-.186 1.077-.506 1.5h3.506v12h-12z" id="outline"/><path class="icon-vs-bg" d="M11 5v-1.092c.581-.207 1-.756 1-1.408 0-.829-.672-1.5-1.5-1.5s-1.5.671-1.5 1.5c0 .652.419 1.202 1 1.408v1.092h-5v5h-1.092c-.206-.581-.756-1-1.408-1-.829 0-1.5.672-1.5 1.5s.671 1.5 1.5 1.5c.652 0 1.202-.419 1.408-1h1.092v4h10v-10h-4zm3 9h-8v-8h8v8zm-5-3h-2v-2h2v-2h2v2h2v2h-2v2h-2v-2z" id="iconBg"/><path class="icon-vs-fg" d="M14 14h-8v-8h8v8zm-1-5h-2v-2h-2v2h-2v2h2v2h2v-2h2v-2z" id="iconFg"/></svg>