<svg xmlns="http://www.w3.org/2000/svg" width="16" height="16"><style type="text/css">.icon-canvas-transparent{opacity:0;fill:#F6F6F6;} .icon-vs-out{fill:#F6F6F6;} .icon-vs-bg{fill:#424242;} .icon-vs-fg{fill:#F0EFF1;}</style><path class="icon-canvas-transparent" d="M16 16h-16v-16h16v16z" id="canvas"/><path class="icon-vs-out" d="M16 0v16h-12v-2h-4v-14h16z" id="outline"/><path class="icon-vs-bg" d="M12 3h1v1h-1v-1zm-8 1h1v-1h-1v1zm2 0h1v-1h-1v1zm4 0h1v-1h-1v1zm-2 0h1v-1h-1v1zm-5 9h1v-1h-1v1zm-2-2h1v-1h-1v1zm0 2h1v-1h-1v1zm14-9v-1h-1v1h1zm-14 5h1v-1h-1v1zm4-2h10v8h-10v-8zm1 7h8v-5h-8v5zm-5-9h1v-1h-1v1zm0 2h1v-1h-1v1zm13-1h1v-1h-1v1zm-12-2h1v-1h-1v1zm9-3h-1v1h1v-1zm-2 0h-1v1h1v-1zm0 1v1h1v-1h-1zm6-1h-1v1h1v-1zm-2 0h-1v1h1v-1zm0 1v1h1v-1h-1zm-2 0v1h1v-1h-1zm-8-1h-1v1h1v-1zm0 1v1h1v-1h-1zm-2 0v1h1v-1h-1zm4 0v1h1v-1h-1zm0-1h-1v1h1v-1zm2 0h-1v1h1v-1zm0 1v1h1v-1h-1z" id="iconBg"/><path class="icon-vs-fg" d="M11 2v1h-1v-1h1zm3 7h-8v5h8v-5zm-6-7v1h1v-1h-1zm-4 0v1h1v-1h-1zm2 0v1h1v-1h-1zm6 0v1h1v-1h-1zm-10 0v1h1v-1h-1zm12 4v-2h-12v8h2v-6h10zm0 8h-8v-5h8v5z" id="iconFg"/></svg>