<svg xmlns="http://www.w3.org/2000/svg" viewBox="0 0 16 16"><style>.icon-canvas-transparent{opacity:0;fill:#f6f6f6}.icon-vs-out{fill:#f6f6f6}.icon-vs-bg{fill:#424242}.icon-vs-fg{fill:#f0eff1}</style><path class="icon-canvas-transparent" d="M16 16H0V0h16v16z" id="canvas"/><path class="icon-vs-out" d="M15 0v15H8.966c-.361.627-1.007 1-1.732 1H1.766c-.73 0-1.38-.379-1.74-1.015-.012-.02-.015-.043-.026-.063v-1.833c.02-.039.029-.08.051-.118L2 9.723V9H1V0h14z" id="outline"/><path class="icon-vs-bg" d="M6 10V8h1V7H2v1h1v2L.909 13.485A1 1 0 0 0 1.766 15h5.468a1 1 0 0 0 .857-1.515L6 10zm-2.968 2L4 10.303V8h1v2.303L5.968 12H3.032zM11 6H6V4h5v2zm3-5v13H9.234c0-.154-.024-.307-.061-.458l.001-.002-.002-.004A1.988 1.988 0 0 0 8.961 13H13V2H4v4H2V5h1V4H2V3h1V2H2V1h12z" id="iconBg"/><path class="icon-vs-fg" d="M13 13H8.866L7 9.734V9h1V6h3V4H6v2H4V2h9v11zM5 8H4v2.303L3.032 12h2.936L5 10.303V8z" id="iconFg"/></svg>