<svg xmlns="http://www.w3.org/2000/svg" viewBox="0 0 16 16"><style>.icon-canvas-transparent{opacity:0;fill:#f6f6f6}.icon-vs-out{fill:#f6f6f6}.icon-vs-bg{fill:#424242}.icon-vs-fg{fill:#f0eff1}</style><path class="icon-canvas-transparent" d="M16 16H0V0h16v16z" id="canvas"/><path class="icon-vs-out" d="M15.424 12.959A2 2 0 0 1 13.668 14H5.5c0 1.103-.897 2-2 2s-2-.897-2-2v-1.633A3.493 3.493 0 0 1 0 9.5 3.5 3.5 0 0 1 3.5 6c1.023 0 1.935.446 2.575 1.146L7 5.707V5H6V2h7v3h-1v.706l3.351 5.212c.396.617.423 1.398.073 2.041z" id="outline"/><path class="icon-vs-bg" d="M6 9.5a2.498 2.498 0 0 1-1.5 2.289V14a1 1 0 1 1-2 0v-2.211A2.502 2.502 0 0 1 1 9.5a2.5 2.5 0 0 1 1.5-2.289V10h2V7.211A2.496 2.496 0 0 1 6 9.5zm7.668 3.5H5.5v-.633A3.493 3.493 0 0 0 7 9.5a3.48 3.48 0 0 0-.32-1.446L8 6V4H7V3h5v1h-1v2l3.51 5.459A1 1 0 0 1 13.668 13zm-1.944-4L10 6.291V4H9v2.291L7.276 9h4.448z" id="iconBg"/><path class="icon-vs-fg" d="M7.276 9L9 6.291V4h1v2.291L11.724 9H7.276z" id="iconFg"/></svg>