<svg xmlns="http://www.w3.org/2000/svg" viewBox="0 0 16 16"><style>.st0{fill:#f6f6f6}.st1{fill:none}.st2{fill:#424242}.st3{fill:#f0eff1}</style><path class="st0" d="M11 0H0v12h2v4h14V0z" id="outline"/><g id="icon_x5F_bg"><path class="st1" d="M2 10h7V2H2v8zm4-1H5V7h1v2zm2 0H7V6h1v3zM3 3h4v1H3V3zm0 2h2v1H3V5zm0 3h1v1H3V8z"/><path class="st2" d="M11 1v1h3v12H4v-2H3v3h12V1z"/><path class="st2" d="M8 12h2v1H8zM5 12h2v1H5zM11 3h1v1h-1zM7 6h1v3H7zM3 3h4v1H3zM5 7h1v2H5z"/><path class="st2" d="M10 1H1v10h9V1zm-1 9H2V2h7v8z"/><path class="st2" d="M3 5h2v1H3zM3 8h1v1H3zM11 7h2v6h-2z"/></g><g id="icon_x5F_fg"><path class="st1" d="M3 5h2v1H3zM3 3h4v1H3zM5 7h1v2H5zM3 8h1v1H3zM7 6h1v3H7z"/><path class="st3" d="M11 2v1h1v1h-1v3h2v6h-2v-1h-1v1H8v-1H7v1H5v-1H4v2h10V2z"/><path class="st3" d="M9 2H2v8h7V2zM3 3h4v1H3V3zm0 2h2v1H3V5zm1 4H3V8h1v1zm2 0H5V7h1v2zm2 0H7V6h1v3z"/></g></svg>