<svg xmlns="http://www.w3.org/2000/svg" viewBox="0 0 16 16"><style>.st0{opacity:0}.st0,.st1{fill:#f6f6f6}.st2{fill:#424242}</style><g id="outline"><path class="st0" d="M0 0h16v16H0z"/><path class="st1" d="M16 3h-4.93a5.316 5.316 0 0 0-.947-.431 6.1 6.1 0 0 0-1.98-.319c-.552 0-1.078.067-1.561.199-.48.13-.924.317-1.326.551H0v10h7.369c.204.019.402.051.614.051.335 0 .641-.014.91-.041.026-.002.046-.007.072-.01H16V3z"/></g><g id="icon_x5F_fg"><path class="st2" d="M12.318 4c.25 0 .475.616.648.977.005.007.005.023.009.023H14v6h-2v1h3V4h-2.682zM3.648 11H2V5h1v.048C3 4.689 3.714 4 3.986 4H1v8h3v-.535c-.126-.131-.242-.465-.352-.465z"/><path class="st2" d="M12.155 5.416a3.677 3.677 0 0 0-.939-1.226 4.194 4.194 0 0 0-1.383-.77 5.192 5.192 0 0 0-1.69-.27c-.472 0-.912.055-1.325.167-.413.112-.791.27-1.134.473a4.257 4.257 0 0 0-1.608 1.683c-.186.346-.33.72-.428 1.118-.1.399-.148.815-.148 1.247 0 .652.11 1.248.332 1.777.22.531.531.982.928 1.361.397.377.872.666 1.417.869a5.164 5.164 0 0 0 1.807.305 8.057 8.057 0 0 0 1.488-.127c.194-.037.365-.078.512-.125.148-.049.274-.094.376-.139v-.854a8.594 8.594 0 0 1-.463.184c-.16.055-.336.104-.52.141-.188.039-.387.07-.605.09a6.101 6.101 0 0 1-.7.033 4.062 4.062 0 0 1-1.508-.264 3.272 3.272 0 0 1-1.126-.73 3.155 3.155 0 0 1-.708-1.123 4.082 4.082 0 0 1-.243-1.433c0-.545.09-1.051.272-1.521.182-.471.435-.879.758-1.224a3.525 3.525 0 0 1 1.156-.816 3.57 3.57 0 0 1 1.457-.294c.419 0 .797.044 1.123.136.328.091.619.215.87.369.254.158.466.339.643.547a3.076 3.076 0 0 1 .684 1.398c.05.254.075.5.075.74 0 .344-.033.654-.102.926a2.632 2.632 0 0 1-.269.695 1.28 1.28 0 0 1-.386.432.787.787 0 0 1-.453.15.558.558 0 0 1-.215-.045.361.361 0 0 1-.165-.158.953.953 0 0 1-.107-.304 2.598 2.598 0 0 1-.039-.492c0-.063.008-.17.018-.324.009-.152.026-.33.041-.531.015-.202.035-.417.055-.643.018-.227.037-.445.057-.648.018-.205.033-.386.049-.546a7.18 7.18 0 0 0 .026-.345h-.919l-.054.6h-.02a.766.766 0 0 0-.137-.281.928.928 0 0 0-.233-.216 1.18 1.18 0 0 0-.676-.188c-.336 0-.645.071-.923.216a2.184 2.184 0 0 0-.721.6 2.777 2.777 0 0 0-.466.903c-.114.35-.169.727-.169 1.135 0 .344.045.643.134.9.089.26.211.473.36.646.153.172.329.301.534.383.2.084.416.129.641.129.176 0 .342-.027.499-.082.155-.05.302-.128.431-.232.134-.104.248-.23.348-.381a1.74 1.74 0 0 0 .237-.517h.026c0 .375.101.674.308.893.206.219.501.328.888.328.292 0 .58-.063.862-.197.284-.131.537-.328.764-.586.221-.262.404-.582.543-.965.138-.387.208-.832.208-1.342 0-.606-.117-1.151-.345-1.635zM8.847 7.965a2.53 2.53 0 0 1-.245.719 1.43 1.43 0 0 1-.408.482.968.968 0 0 1-.572.176.832.832 0 0 1-.633-.31 1.235 1.235 0 0 1-.197-.391 1.894 1.894 0 0 1-.072-.547c0-.236.027-.48.08-.729.056-.248.137-.473.25-.678.11-.199.25-.363.417-.491a.923.923 0 0 1 .581-.192c.123 0 .235.021.34.063a.738.738 0 0 1 .279.197c.08.086.145.197.189.33.044.133.07.293.07.48.001.317-.029.615-.079.891z"/></g></svg>