<svg xmlns="http://www.w3.org/2000/svg" viewBox="0 0 16 16">
  <defs>
    <style>.canvas{fill: none; opacity: 0;}.light-defaultgrey{fill: #212121; opacity: 1;}</style>
  </defs>
  <title>IconLightGroupBy</title>
  <g id="canvas">
    <path class="canvas" d="M16,16H0V0H16Z" />
  </g>
  <g id="level-1">
    <path class="light-defaultgrey" d="M5,14H2.5L2,13.5V1.5L2.5,1H5V2H3V13H5Z" />
    <path class="light-defaultgrey" d="M8,7H6.5L6,6.5v-4L6.5,2H8V3H7V6H8Z" />
    <path class="light-defaultgrey" d="M8,13H6.5L6,12.5v-4L6.5,8H8V9H7v3H8Z" />
    <path class="light-defaultgrey" d="M14,4H9V3h5Zm0,1H9V6h5Zm0,4H9v1h5Zm0,2H9v1h5Z" />
  </g>
</svg>
