<svg xmlns="http://www.w3.org/2000/svg" viewBox="0 0 16 16"><style>.icon-canvas-transparent{opacity:0;fill:#f6f6f6}.icon-vs-out{fill:#f6f6f6}.icon-vs-bg{fill:#424242}.icon-vs-fg{fill:#f0eff1}</style><path class="icon-canvas-transparent" d="M16 16H0V0h16v16z" id="canvas"/><path class="icon-vs-out" d="M15.304 8.145l-1.486-1.42c.107-.404.166-.83.166-1.233A4.498 4.498 0 0 0 9.491 1c-.511 0-1.257.062-1.912.358l-1.045.473L5.618 0H1.382L0 2.764v.473L1.382 6H1v3h1v.723L.051 12.971c-.022.037-.031.079-.051.118v1.833c.011.021.014.043.026.064A1.977 1.977 0 0 0 1.766 16h5.467c.731 0 1.381-.379 1.741-1.015a1.98 1.98 0 0 0-.026-2.015L7 9.723v-.456l.568.272a4.436 4.436 0 0 0 1.923.445c.447 0 .855-.041 1.221-.123l1.447 1.459c.113.114.726.681 1.612.681.396 0 .985-.118 1.548-.681 1.152-1.151.612-2.549-.015-3.175z" id="outline"/><path class="icon-vs-bg" d="M14.612 10.613c-.873.873-1.746 0-1.746 0l-1.875-1.891c-.439.199-.987.262-1.5.262-.536 0-1.038-.13-1.491-.347V6H6.051C6.026 5.833 6 5.666 6 5.491c0-.511.074-1.05.273-1.487l2.346 2.361 1.747-1.746L7.991 2.27c.439-.199.99-.27 1.5-.27a3.491 3.491 0 0 1 3.492 3.491c0 .512-.123 1.073-.32 1.513l1.949 1.863s.873.873 0 1.746zM5 1H2L1 3l1 2h3l1-2-1-2zM3.555 3.989C3.535 3.99 3.519 4 3.5 4s-.035-.01-.055-.011C2.92 3.959 2.5 3.533 2.5 3s.42-.959.945-.989C3.465 2.01 3.481 2 3.5 2s.035.01.055.011c.525.03.945.456.945.989s-.42.959-.945.989zm4.536 9.496L6 10V8h1V7H2v1h1v2L.909 13.485A1 1 0 0 0 1.766 15h5.468a1 1 0 0 0 .857-1.515zM3.032 12l.8-1.445.168-.252V8h1v2.303l.168.252.8 1.445H3.032z" id="iconBg"/><path class="icon-vs-fg" d="M4.5 3c0 .533-.42.959-.945.989C3.535 3.99 3.519 4 3.5 4s-.035-.01-.055-.011C2.92 3.959 2.5 3.533 2.5 3s.42-.959.945-.989C3.465 2.01 3.481 2 3.5 2s.035.01.055.011c.525.03.945.456.945.989zm.5 7.303V8H4v2.303l-.168.252-.8 1.445h2.936l-.8-1.445L5 10.303z" id="iconFg"/></svg>