<svg xmlns="http://www.w3.org/2000/svg" viewBox="0 0 16 16">
  <defs>
    <style>.canvas{fill: none; opacity: 0;}.light-defaultgrey-10{fill: #212121; opacity: 0.1;}.light-defaultgrey{fill: #212121; opacity: 1;}.light-yellow-10{fill: #996f00; opacity: 0.1;}.light-yellow{fill: #996f00; opacity: 1;}</style>
  </defs>
  <title>IconLightEventPrivate</title>
  <g id="canvas" class="canvas">
    <path class="canvas" d="M16,16H0V0H16Z" />
  </g>
  <g id="level-1">
    <path class="light-defaultgrey-10" d="M15.5,11.5v4h-5v-4Z" />
    <path class="light-defaultgrey" d="M15.5,11H15V10a2,2,0,0,0-4,0v1h-.5l-.5.5v4l.5.5h5l.5-.5v-4ZM12,10a1,1,0,0,1,2,0v1H12Zm3,5H11V12h4Z" />
    <path class="light-yellow-10" d="M11.5,6.5l-8,8H2l3.5-6H2l4-7h5.387L7,6.5Z" />
    <path class="light-yellow" d="M11.5,6H8.1l3.659-4.17L11.387,1H6l-.434.252-4,7L2,9H4.63L1.568,14.248,2,15H3.5l.354-.146,8-8ZM3.293,14H2.871L5.932,8.752,5.5,8H2.862L6.29,2h3.993L6.624,6.17,7,7h3.293Z" />
  </g>
</svg>
