<svg xmlns="http://www.w3.org/2000/svg" viewBox="0 0 16 16">
  <defs>
    <style>.canvas{fill: none; opacity: 0;}.light-defaultgrey{fill: #212121; opacity: 1;}.light-blue{fill: #005dba; opacity: 1;}</style>
  </defs>
  <title>ReturnParameter</title>
  <g id="canvas">
    <path class="canvas" d="M16,16H0V0H16Z" />
  </g>
  <g id="level-1">
    <path class="light-defaultgrey" d="M3,13H4v1H2.5L2,13.5V8.149l.649.65L3,8.448Zm8.89-6.04A3.274,3.274,0,0,1,13,9.53a2.949,2.949,0,0,1-.6,1.91,1.827,1.827,0,0,1-1.48.74c-.74,0-1.12-.35-1.12-1.05H9.77A1.352,1.352,0,0,1,8.4,12.18a1.3,1.3,0,0,1-1.06-.49,1.983,1.983,0,0,1-.4-1.32,2.9,2.9,0,0,1,.55-1.82,1.725,1.725,0,0,1,1.45-.73,1,1,0,0,1,.61.19.783.783,0,0,1,.34.45h.02c.01-.09.03-.28.07-.56h.81c-.15,1.72-.23,2.59-.23,2.62,0,.65.17.97.51.97a.883.883,0,0,0,.76-.54,2.877,2.877,0,0,0,.3-1.4,2.757,2.757,0,0,0-.82-2.07,3.069,3.069,0,0,0-2.27-.8,3.022,3.022,0,0,0-2.3.97,3.41,3.41,0,0,0-.91,2.43,3.129,3.129,0,0,0,.88,2.32,3.167,3.167,0,0,0,2.36.89,4.706,4.706,0,0,0,2.01-.4v.75A5.507,5.507,0,0,1,8.95,14a3.99,3.99,0,0,1-2.9-1.07,3.789,3.789,0,0,1-1.1-2.82A4.017,4.017,0,0,1,6.12,7.15,3.955,3.955,0,0,1,9.08,5.97,4.07,4.07,0,0,1,11.89,6.96ZM9.8,9.47q0-.96-.78-.96a1,1,0,0,0-.87.53,2.426,2.426,0,0,0-.33,1.31,1.417,1.417,0,0,0,.23.84.683.683,0,0,0,.59.3.943.943,0,0,0,.85-.55A2.972,2.972,0,0,0,9.8,9.47ZM15.5,6H14V7h1v6H14v1h1.5l.5-.5v-7Z" />
    <path class="light-blue" d="M7,2.5A2.5,2.5,0,0,1,4.5,5H1.678L3.356,6.678l-.707.707-2.5-2.5V4.178l2.5-2.5.707.707L1.742,4H4.5a1.5,1.5,0,0,0,0-3H4V0h.5A2.5,2.5,0,0,1,7,2.5Z" />
  </g>
</svg>
