<svg xmlns="http://www.w3.org/2000/svg" viewBox="0 0 16 16">
  <defs>
    <style>.canvas{fill: none; opacity: 0;}.light-purple-10{fill: #6936aa; opacity: 0.1;}.light-purple{fill: #6936aa; opacity: 1;}.light-defaultgrey-10{fill: #212121; opacity: 0.1;}.light-defaultgrey{fill: #212121; opacity: 1;}.cls-1{opacity:0.75;}</style>
  </defs>
  <title>IconLightMethodInternal</title>
  <g id="canvas" class="canvas">
    <path class="canvas" d="M16,16H0V0H16Z" />
  </g>
  <g id="level-1">
    <g class="cls-1">
      <path class="light-purple-10" d="M7.126,12.35,6,13,1.5,10.4V5.189L6.009,2.4,10.5,5.189V8A3.5,3.5,0,0,0,7,11.5,3.34,3.34,0,0,0,7.126,12.35Z" />
      <path class="light-purple" d="M10.765,4.765,6.274,1.97H5.746l-4.51,2.8L1,5.189V10.4l.25.433,4.5,2.6h.5l1.033-.6a3.691,3.691,0,0,1-.248-1.011l-.534.309,0-4.059L10,6.055v2A3.443,3.443,0,0,1,10.5,8a3.373,3.373,0,0,1,.5.057V5.189ZM6.009,2.983l3.52,2.191L6,7.21,2.474,5.174ZM2,10.113V6.056l3.5,2.02,0,4.059Z" />
    </g>
    <path class="light-purple-10" d="M6.009,2.4,10.5,5.189,6,7.787l-4.5-2.6Z" />
    <path class="light-purple" d="M5.754,8.221l-4.5-2.6-.014-.858L5.746,1.97h.528l4.491,2.8-.015.857-4.5,2.6ZM2.474,5.174,6,7.21,9.528,5.174,6.009,2.983Z" />
    <path class="light-defaultgrey-10" d="M15.5,11.5a1.99,1.99,0,0,1-.148.75l-.138.265c-.2.331-3.214,2.81-3.214,2.81s-3.018-2.479-3.214-2.81l-.138-.265A1.993,1.993,0,0,1,12,10.19a1.992,1.992,0,0,1,3.5,1.31Z" />
    <path class="light-defaultgrey" d="M13.5,9a2.478,2.478,0,0,0-1.5.509A2.491,2.491,0,0,0,8,11.5a2.525,2.525,0,0,0,.2.979l.152.293a33.618,33.618,0,0,0,3.327,2.94l.317.261.317-.261a31.686,31.686,0,0,0,3.342-2.968l.156-.306A2.5,2.5,0,0,0,13.5,9ZM14.9,12.047l-.1.192c-.167.218-1.5,1.364-2.8,2.438-1.3-1.074-2.63-2.217-2.771-2.39l-.117-.224a1.493,1.493,0,0,1,2.512-1.544l.376.43.376-.43A1.494,1.494,0,0,1,14.9,12.047Z" />
  </g>
</svg>
