<svg xmlns="http://www.w3.org/2000/svg" viewBox="0 0 16 16"><style>.icon-canvas-transparent{opacity:0;fill:#f6f6f6}.icon-vs-out{fill:#f6f6f6}.icon-vs-bg{fill:#424242}.icon-vs-fg{fill:#f0eff1}</style><path class="icon-canvas-transparent" d="M16 16H0V0h16v16z" id="canvas"/><path class="icon-vs-out" d="M14.424 10.959A2 2 0 0 1 12.668 12H9v2H7v1H2v-1H0v-3h2v-1h.34c0-.377.098-.753.31-1.082L3 8.373V8h.24L6 3.707V3H5V0h7v3h-1v.706l3.351 5.212c.396.617.423 1.398.073 2.041z" id="outline"/><path class="icon-vs-bg" d="M8 13H6v1H3v-1H1v-1h2v-1h1V9h1v2h1v1h2v1zm5.51-3.541L10 4V2h1V1H6v1h1v2L4.429 8H6v2h1v1h5.668a1 1 0 0 0 .842-1.541zM6.276 7L8 4.291V2h1v2.291L10.724 7H6.276z" id="iconBg"/><path class="icon-vs-fg" d="M9 2v2.291L10.724 7H6.276L8 4.291V2h1z" id="iconFg"/></svg>