<svg xmlns="http://www.w3.org/2000/svg" viewBox="0 0 16 16"><style>.st0{opacity:0}.st0,.st1{fill:#f6f6f6}.st2{fill:#424242}.st3{fill:#00539c}.st4{fill:#f0eff1}</style><g id="outline"><path class="st0" d="M0 0h16v16H0z"/><path class="st1" d="M16 5V0h-5v1H5V0H0v5h1v6H0v5h5v-1h6v1h5v-5h-1V5z"/></g><path class="st2" d="M10 6V2H5v1h4v3H6v3H3V5H2v5h4v4h5v-1H7v-3h3V7h3v4h1V6h-4zM9 9H7V7h2v2z" id="icon_x5F_bg"/><g id="color_x5F_decoration"><path class="st3" d="M1 1h3v3H1zM12 12h3v3h-3zM12 1h3v3h-3zM1 12h3v3H1z"/></g><g id="icon_x5F_fg"><path class="st4" d="M7 7h2v2H7z"/><path class="st4" d="M6 9V6h3V3H5v2H3v4zM10 7v3H7v3h4v-2h2V7z"/></g></svg>