<?xml version="1.0" encoding="utf-8"?>
<!-- Generator: Adobe Illustrator 18.1.1, SVG Export Plug-In . SVG Version: 6.00 Build 0)  -->
<!DOCTYPE svg PUBLIC "-//W3C//DTD SVG 1.1//EN" "http://www.w3.org/Graphics/SVG/1.1/DTD/svg11.dtd">
<svg version="1.1" xmlns="http://www.w3.org/2000/svg" xmlns:xlink="http://www.w3.org/1999/xlink" x="0px" y="0px" width="16px"
	 height="16px" viewBox="0 0 16 16" style="enable-background:new 0 0 16 16;" xml:space="preserve">
<style type="text/css">
	.icon-canvas-transparent{opacity:0;fill:#F6F6F6;}
	.icon-vs-out{fill:#F6F6F6;}
	.icon-vs-bg{fill:#424242;}
	.icon-vs-fg{fill:#F0EFF1;}
</style>
<g id="canvas">
	<path class="icon-canvas-transparent" d="M16,16H0V0h16V16z"/>
</g>
<g id="outline">
	<path class="icon-vs-out" d="M8,1c2.206,0,4,1.794,4,4c0,1.475-0.81,2.75-2,3.443V9h2v5h-2v1H6V8.443
		C4.811,7.75,4,6.475,4,5C4,2.794,5.794,1,8,1z"/>
</g>
<g id="iconBg">
	<path class="icon-vs-bg" d="M5,5c0,1.301,0.839,2.401,2,2.815V14h2v-1h2v-1H9v-1h2v-1H9V7.815
		C10.161,7.401,11,6.301,11,5c0-1.654-1.346-3-3-3C6.347,2,5,3.346,5,5z M9,5c0,0.551-0.449,1-1,1S7,5.551,7,5c0-0.553,0.449-1,1-1
		S9,4.447,9,5z"/>
</g>
<g id="iconFg">
	<path class="icon-vs-fg" d="M8,4c0.551,0,1,0.447,1,1c0,0.551-0.449,1-1,1S7,5.551,7,5C7,4.447,7.449,4,8,4"/>
</g>
</svg>
