<svg xmlns="http://www.w3.org/2000/svg" viewBox="0 0 16 16"><defs><style>.icon-canvas-transparent,.icon-vs-out{fill:#f6f6f6}.icon-canvas-transparent{opacity:0}.icon-vs-bg{fill:#424242}.icon-vs-fg{fill:#f0eff1}.icon-vs-action-purple{fill:#652d90}</style></defs><title>UserControl_16x</title><path class="icon-canvas-transparent" d="M16 16H0V0h16z"/><path class="icon-vs-out" d="M16 12H9v4H0V9h2a3.438 3.438 0 0 1-1-2.5 3.489 3.489 0 0 1 3-3.449V0h12z"/><path class="icon-vs-bg" d="M5 1v2.05a3.458 3.458 0 0 1 1 .3V2h8v8H9v1h6V1z"/><path class="icon-vs-fg" d="M14 2v8H9V9H6.926A3.456 3.456 0 0 0 8 6.5a3.491 3.491 0 0 0-2-3.15V2z"/><circle class="icon-vs-action-purple" cx="4.5" cy="6.5" r="2.5"/><path class="icon-vs-action-purple" d="M4.5 12L3 10H1v5h7v-5H6l-1.5 2z"/></svg>