<svg xmlns="http://www.w3.org/2000/svg" viewBox="0 0 16 16">
  <defs>
    <style>.canvas{fill: none; opacity: 0;}.light-defaultgrey-10{fill: #212121; opacity: 0.1;}.light-defaultgrey{fill: #212121; opacity: 1;}.cls-1{opacity:0.75;}</style>
  </defs>
  <title>IconLightRule</title>
  <g id="canvas" class="canvas">
    <path class="canvas" d="M16,16H0V0H16Z" />
  </g>
  <g id="level-1">
    <g class="cls-1">
      <path class="light-defaultgrey-10" d="M13.5,14.5V1.5H2.5v13Z" />
      <path class="light-defaultgrey" d="M2.5,1h11l.5.5v13l-.5.5H2.5L2,14.5V1.5ZM13,2H3V14H13Z" />
    </g>
    <path class="light-defaultgrey-10" d="M9.5,7.989v3.869L8,10.358l-1.5,1.5V7.989a2.5,2.5,0,1,1,3,0Z" />
    <path class="light-defaultgrey" d="M11,6A3,3,0,1,0,6,8.22v3.638l.854.353L8,11.065l1.146,1.146L10,11.858V8.22A2.985,2.985,0,0,0,11,6ZM9,10.651,8.354,10H7.646L7,10.651V8.816a2.809,2.809,0,0,0,2,0ZM8,8a2,2,0,1,1,2-2A2,2,0,0,1,8,8Z" />
  </g>
</svg>
