<svg xmlns="http://www.w3.org/2000/svg" viewBox="0 0 16 16"><style>.icon-canvas-transparent{opacity:0;fill:#f6f6f6}.icon-vs-out{fill:#f6f6f6}.icon-vs-bg{fill:#424242}.icon-vs-fg{fill:#f0eff1}</style><path class="icon-canvas-transparent" d="M16 16H0V0h16v16z" id="canvas"/><path class="icon-vs-out" d="M16 14h-3.34c0 .329-.073.659-.237.959A1.998 1.998 0 0 1 10.668 16H2.332A1.982 1.982 0 0 1 .34 14H0V0h16v14z" id="outline"/><path class="icon-vs-bg" d="M8 8V6h1V5H4v1h1v2l-3.51 5.459A1 1 0 0 0 2.332 15h8.337a1 1 0 0 0 .841-1.541L8 8zm-3.724 3L6 8.291V6h1v2.291L8.724 11H4.276zM15 1v12h-2.611c-.015-.026-.022-.056-.038-.082L11.76 12H14V4H2v6.817l-1 1.555V1h14z" id="iconBg"/><path class="icon-vs-fg" d="M2 10.817V4h1v3h1v.707l-2 3.11zM10 4v3H9v.706L11.76 12H14V4h-4zm-1.276 7L7 8.291V6H6v2.291L4.276 11h4.448z" id="iconFg"/></svg>