<svg xmlns="http://www.w3.org/2000/svg" viewBox="0 0 16 16"><style>.st0{opacity:0}.st0,.st1{fill:#f6f6f6}.st2{fill:#dcb67a}.st3{fill:#f0eff1}.st4{fill:none}.st5{fill:#424242}</style><g id="outline"><path class="st0" d="M0 0h16v16H0z"/><path class="st1" d="M16 12.234l-.508-.889A1.93 1.93 0 0 0 16 10V2c0-1.299-1.03-2-2-2H6.382l-1 2H3.97s.015.01.023.02C2.995 2.202 2 2.978 2 4v2H.382l2 4h-.296L0 12.086v.828L2.086 15h3.828l1.531-1.53L8.465 15h6.07L16 12.803v-.569z"/></g><g id="icon_x5F_bg"><path class="st2" d="M14 8.734l.936 1.64c.038-.107.064-.226.064-.374V8h-1v.734zM5.914 10l1 1h.791L9 8.734V8H8V7H4V4h2.496l1-2H14v3h1V2c0-1-1.004-1-1.004-1h-7l-1 2h-2.03C4.202 3 3 3 3 4v3H1.996l1.5 3h2.418z"/><path class="st3" d="M8 5h6V2H7.496l-1 2H4v3h4z"/><path class="st4" d="M12 9.303V7h-1v2.303l-.168.252-.8 1.445h2.936l-.8-1.445z"/><path class="st5" d="M13 9V7h1V6H9v1h1v2l-2 3.5L9 14h5l1-1.5L13 9zm-2.968 2l.8-1.445.168-.252V7h1v2.303l.168.252.8 1.445h-2.936zM7 12.5L5.5 14h-1l.979-1H2.512l.988 1h-1L1 12.5 2.5 11h1l-.988 1h2.967L4.5 11h1L7 12.5z"/></g><path class="st3" d="M10.032 11l.8-1.445.168-.252V7h1v2.303l.168.252.8 1.445h-2.936z" id="icon_x5F_fg"/></svg>