<svg xmlns="http://www.w3.org/2000/svg" viewBox="0 0 16 16">
  <defs>
    <style>.canvas{fill: none; opacity: 0;}.light-defaultgrey-10{fill: #212121; opacity: 0.1;}.light-defaultgrey{fill: #212121; opacity: 1;}.light-red{fill: #c50b17; opacity: 1;}.white{fill: #ffffff; opacity: 1;}.cls-1{opacity:0.75;}</style>
  </defs>
  <title>IconLightRuleError</title>
  <g id="canvas" class="canvas">
    <path class="canvas" d="M16,16H0V0H16Z" />
  </g>
  <g id="level-1">
    <g class="cls-1">
      <path class="light-defaultgrey-10" d="M2.5,1.5v13H7.67c-.09-.16-.18-.33-.26-.5A5.218,5.218,0,0,1,7,12.06V12a4.049,4.049,0,0,1,.06-.7,4.1,4.1,0,0,1,.21-.92A4.93,4.93,0,0,1,8,9a5.069,5.069,0,0,1,2.07-1.62,3.965,3.965,0,0,1,.69-.22A4.635,4.635,0,0,1,12,7a4.712,4.712,0,0,1,1,.1c.17.03.33.08.5.12V1.5Z" />
      <path class="light-defaultgrey" d="M13.5,1H2.5L2,1.5v13l.5.5H8a4.322,4.322,0,0,1-.33-.5c-.09-.16-.18-.33-.26-.5H3V2H13V7.1c.17.03.33.08.5.12.17.06.34.12.5.19V1.5Z" />
    </g>
    <path class="light-defaultgrey-10" d="M8,3.5A2.493,2.493,0,0,0,6.5,7.99v3.87l.56-.56a4.1,4.1,0,0,1,.21-.92A4.93,4.93,0,0,1,8,9a5.069,5.069,0,0,1,2.07-1.62A2.4,2.4,0,0,0,10.5,6,2.5,2.5,0,0,0,8,3.5Z" />
    <path class="light-defaultgrey" d="M8,3A2.989,2.989,0,0,0,6,8.22v3.64l.85.35L7,12.06V12a4.049,4.049,0,0,1,.06-.7,4.1,4.1,0,0,1,.21-.92L7,10.65V8.82A3,3,0,0,0,8,9a5.069,5.069,0,0,1,2.07-1.62,3.965,3.965,0,0,1,.69-.22A2.987,2.987,0,0,0,8,3ZM8,8a2,2,0,1,1,2-2A2.006,2.006,0,0,1,8,8Z" />
    <path class="light-red" d="M12,8a4,4,0,1,0,4,4A4,4,0,0,0,12,8Z" />
    <path class="white" d="M12.707,12l1.147,1.146-.708.708L12,12.707l-1.146,1.147-.708-.708L11.293,12l-1.147-1.146.708-.708L12,11.293l1.146-1.147.708.708Z" />
  </g>
</svg>
